<svg width="226" height="45" viewBox="0 0 226 45" fill="none" xmlns="http://www.w3.org/2000/svg">
<path d="M113.5 1L113.499 1.5L113.5 1ZM0.881683 41.9931C0.613388 41.9277 0.448853 41.6572 0.514206 41.3889L1.57901 37.0167C1.64436 36.7484 1.91483 36.5839 2.18314 36.6493C2.45143 36.7146 2.61595 36.9851 2.55061 37.2534L1.60411 41.1398L5.49052 42.0863C5.75882 42.1516 5.92334 42.4221 5.858 42.6904C5.79266 42.9587 5.52219 43.1232 5.25389 43.0579L0.881683 41.9931ZM225 41.5073C224.739 41.934 224.739 41.934 224.739 41.934C224.739 41.934 224.739 41.934 224.739 41.934C224.739 41.934 224.739 41.934 224.739 41.934C224.739 41.934 224.739 41.9339 224.739 41.9339C224.739 41.9339 224.739 41.9339 224.739 41.9338C224.739 41.9336 224.738 41.9334 224.738 41.9331C224.737 41.9325 224.736 41.9316 224.733 41.9304C224.729 41.9279 224.723 41.9242 224.715 41.9192C224.699 41.9093 224.674 41.8943 224.642 41.8745C224.576 41.8349 224.478 41.7757 224.349 41.698L224.864 40.8409C224.994 40.9193 225.093 40.979 225.16 41.0193C225.193 41.0394 225.218 41.0546 225.235 41.0649C225.243 41.07 225.25 41.0739 225.254 41.0765C225.256 41.0778 225.258 41.0788 225.259 41.0795C225.259 41.0798 225.26 41.0801 225.26 41.0803C225.26 41.0803 225.26 41.0804 225.26 41.0805C225.261 41.0805 225.261 41.0805 225.261 41.0805C225.261 41.0805 225.261 41.0805 225.261 41.0805C225.261 41.0805 225.261 41.0805 225.261 41.0805C225.261 41.0806 225.261 41.0806 225 41.5073ZM217.262 37.5996C216.964 37.4323 216.659 37.2611 216.345 37.0862L216.832 36.213C217.147 36.3884 217.453 36.56 217.752 36.7277L217.262 37.5996ZM209.18 33.1806C208.876 33.0188 208.569 32.8556 208.258 32.691L208.726 31.8073C209.038 31.9723 209.346 32.1358 209.65 32.298L209.18 33.1806ZM200.996 28.9334C200.697 28.7824 200.396 28.6308 200.093 28.4786L200.542 27.585C200.846 27.7376 201.148 27.8896 201.447 28.041L200.996 28.9334ZM192.745 24.8747C192.439 24.7284 192.132 24.582 191.823 24.4353L192.252 23.5321C192.562 23.6791 192.87 23.8259 193.176 23.9726L192.745 24.8747ZM184.395 21.0001C184.085 20.8607 183.774 20.7213 183.462 20.582L183.87 19.6688C184.183 19.8085 184.495 19.9483 184.806 20.0881L184.395 21.0001ZM175.953 17.3324C175.64 17.2011 175.325 17.07 175.01 16.9392L175.394 16.0156C175.71 16.1468 176.025 16.2783 176.339 16.41L175.953 17.3324ZM167.415 13.8987C167.097 13.7765 166.78 13.6548 166.461 13.5336L166.817 12.5991C167.137 12.7208 167.456 12.8429 167.774 12.9654L167.415 13.8987ZM158.777 10.7354C158.455 10.6238 158.133 10.5128 157.811 10.4026L158.135 9.45644C158.458 9.56716 158.782 9.67855 159.105 9.79057L158.777 10.7354ZM150.035 7.8911C149.709 7.79211 149.382 7.69396 149.055 7.5967L149.34 6.63825C149.669 6.73599 149.997 6.8346 150.325 6.93405L150.035 7.8911ZM141.18 5.43032C140.85 5.34736 140.52 5.26548 140.19 5.1847L140.428 4.21344C140.76 4.2947 141.092 4.37705 141.424 4.46049L141.18 5.43032ZM132.211 3.44644C131.878 3.38361 131.546 3.32213 131.215 3.26203L131.393 2.27807C131.727 2.33861 132.062 2.40055 132.397 2.46384L132.211 3.44644ZM123.14 2.07253C122.804 2.03531 122.469 1.99981 122.135 1.96605L122.235 0.971118C122.573 1.0052 122.911 1.04104 123.25 1.07862L123.14 2.07253ZM114.001 1.50285C113.833 1.50135 113.666 1.5004 113.499 1.5L113.501 0.500001C113.671 0.500406 113.84 0.501369 114.01 0.502885L114.001 1.50285ZM113.499 1.5C113.33 1.4996 113.162 1.49975 112.992 1.50046L112.988 0.500465C113.16 0.499749 113.33 0.499593 113.501 0.500001L113.499 1.5ZM104.791 1.93045C104.454 1.96304 104.117 1.99739 103.778 2.03348L103.672 1.03912C104.014 1.00268 104.355 0.967998 104.695 0.935093L104.791 1.93045ZM95.633 3.19984C95.2985 3.25915 94.9636 3.31985 94.6282 3.38192L94.4462 2.39862C94.784 2.33609 95.1214 2.27495 95.4584 2.2152L95.633 3.19984ZM86.5783 5.10501C86.2458 5.18528 85.913 5.26667 85.5801 5.34915L85.3396 4.3785C85.6745 4.29554 86.0092 4.21368 86.3436 4.13293L86.5783 5.10501ZM77.6343 7.5067C77.3045 7.6037 76.9748 7.70158 76.6451 7.80033L76.3582 6.84238C76.6894 6.74317 77.0207 6.64482 77.352 6.54735L77.6343 7.5067ZM68.7994 10.3081C68.4742 10.4183 68.1493 10.5292 67.8246 10.6407L67.4997 9.69496C67.8257 9.58298 68.1519 9.47166 68.4784 9.36101L68.7994 10.3081ZM60.0704 13.4395C59.7493 13.5608 59.4286 13.6826 59.1084 13.8048L58.7517 12.8706C59.073 12.7479 59.3948 12.6257 59.717 12.504L60.0704 13.4395ZM51.4438 16.8494C51.1259 16.9804 50.8087 17.1118 50.4923 17.2433L50.1083 16.32C50.4257 16.188 50.7438 16.0563 51.0626 15.9249L51.4438 16.8494ZM42.9146 20.5001C42.5997 20.6398 42.2858 20.7795 41.9729 20.9193L41.565 20.0062C41.8787 19.8661 42.1935 19.726 42.5092 19.586L42.9146 20.5001ZM34.4774 24.3643C34.1659 24.5114 33.8558 24.6584 33.5472 24.8051L33.1179 23.902C33.4272 23.7549 33.7381 23.6076 34.0503 23.4601L34.4774 24.3643ZM26.1313 28.4213C25.8257 28.574 25.5221 28.7262 25.2206 28.8778L24.7714 27.9843C25.0736 27.8324 25.3779 27.6799 25.6843 27.5268L26.1313 28.4213ZM17.8917 32.65C17.578 32.8153 17.2679 32.9791 16.9615 33.1415L16.4932 32.2579C16.8004 32.0951 17.1112 31.9309 17.4257 31.7653L17.8917 32.65ZM9.7308 37.0639C9.41455 37.2396 9.10608 37.4115 8.8056 37.5796L8.31757 36.7067C8.61884 36.5383 8.9281 36.3659 9.24516 36.1897L9.7308 37.0639ZM1.65387 41.6973C1.52338 41.7754 1.42462 41.8348 1.35863 41.8747C1.32562 41.8946 1.30081 41.9096 1.2843 41.9196C1.27605 41.9246 1.26988 41.9283 1.26579 41.9308C1.26376 41.9321 1.26224 41.933 1.26125 41.9336C1.26076 41.9339 1.26039 41.9341 1.26016 41.9342C1.26004 41.9343 1.25996 41.9344 1.2599 41.9344C1.25989 41.9344 1.25986 41.9344 1.25986 41.9344C1.25986 41.9344 1.25984 41.9344 1.25984 41.9344V41.9344C1.25986 41.9344 1.25986 41.9344 1 41.5073C0.740143 41.0801 0.740143 41.0801 0.740158 41.0801C0.740158 41.0801 0.740158 41.0801 0.740158 41.0801C0.740173 41.0801 0.740189 41.0801 0.740189 41.0801C0.740219 41.08 0.74025 41.08 0.740295 41.08C0.740372 41.0799 0.740494 41.0799 0.740631 41.0798C0.740921 41.0796 0.741348 41.0794 0.741913 41.079C0.743027 41.0783 0.744659 41.0773 0.746826 41.076C0.75116 41.0734 0.757584 41.0695 0.766083 41.0644C0.783081 41.0541 0.808395 41.0387 0.841904 41.0185C0.90892 40.9781 1.0087 40.918 1.14024 40.8393L1.65387 41.6973ZM113.5 1L113.498 2L113.5 1ZM0.763367 42.4789C0.226776 42.3482 -0.10228 41.8072 0.0283966 41.2706L2.15804 32.5262C2.28871 31.9896 2.82965 31.6606 3.36626 31.7913C3.90286 31.9219 4.23192 32.4629 4.10123 32.9995L2.20822 40.7723L9.98103 42.6653C10.5176 42.796 10.8467 43.3369 10.716 43.8735C10.5853 44.4101 10.0444 44.7392 9.50778 44.6085L0.763367 42.4789ZM225 41.5073C224.479 42.3607 224.479 42.3607 224.479 42.3607C224.479 42.3607 224.479 42.3607 224.479 42.3607C224.479 42.3607 224.479 42.3607 224.479 42.3607C224.479 42.3607 224.479 42.3607 224.479 42.3607C224.479 42.3606 224.479 42.3606 224.479 42.3605C224.478 42.3604 224.478 42.3602 224.478 42.3599C224.477 42.3594 224.475 42.3585 224.473 42.3573C224.469 42.3549 224.463 42.3513 224.455 42.3464C224.439 42.3366 224.415 42.3218 224.382 42.3021C224.317 42.2628 224.22 42.2039 224.091 42.1265L225.122 40.4124C225.253 40.491 225.352 40.5511 225.419 40.5917C225.452 40.6119 225.478 40.6273 225.495 40.6377C225.503 40.6429 225.51 40.6469 225.514 40.6496C225.516 40.6509 225.518 40.652 225.519 40.6527C225.52 40.653 225.52 40.6533 225.521 40.6535C225.521 40.6536 225.521 40.6537 225.521 40.6537C225.521 40.6538 225.521 40.6538 225.521 40.6538C225.521 40.6538 225.521 40.6538 225.521 40.6538C225.521 40.6538 225.521 40.6538 225.521 40.6538C225.521 40.6538 225.521 40.6538 225 41.5073ZM217.017 38.0355C216.72 37.8685 216.414 37.6975 216.101 37.5228L217.076 35.7764C217.391 35.952 217.698 36.1239 217.997 36.2918L217.017 38.0355ZM208.945 33.6219C208.642 33.4604 208.335 33.2973 208.024 33.1329L208.96 31.3654C209.272 31.5306 209.58 31.6943 209.885 31.8566L208.945 33.6219ZM200.77 29.3797C200.472 29.2288 200.172 29.0774 199.869 28.9253L200.767 27.1383C201.071 27.291 201.373 27.4432 201.673 27.5947L200.77 29.3797ZM192.529 25.3258C192.224 25.1797 191.917 25.0334 191.608 24.8869L192.467 23.0804C192.777 23.2277 193.085 23.3747 193.392 23.5215L192.529 25.3258ZM184.19 21.4561C183.881 21.3169 183.57 21.1777 183.258 21.0386L184.074 19.2123C184.387 19.3521 184.699 19.4921 185.011 19.632L184.19 21.4561ZM175.76 17.7936C175.447 17.6624 175.133 17.5316 174.819 17.4009L175.586 15.5539C175.902 15.6853 176.218 15.8169 176.533 15.9489L175.76 17.7936ZM167.235 14.3653C166.918 14.2434 166.601 14.1219 166.283 14.0009L166.995 12.1319C167.315 12.2537 167.635 12.376 167.954 12.4988L167.235 14.3653ZM158.613 11.2078C158.292 11.0964 157.971 10.9857 157.649 10.8756L158.297 8.98337C158.621 9.09432 158.945 9.20592 159.268 9.31817L158.613 11.2078ZM149.89 8.36962C149.564 8.27086 149.238 8.17295 148.912 8.07592L149.483 6.15903C149.812 6.257 150.141 6.35584 150.47 6.45553L149.89 8.36962ZM141.058 5.91523C140.729 5.83251 140.4 5.75087 140.071 5.67033L140.547 3.72782C140.88 3.80931 141.213 3.8919 141.545 3.97558L141.058 5.91523ZM132.118 3.93775C131.787 3.87514 131.456 3.81389 131.126 3.75402L131.482 1.78608C131.818 1.84685 132.153 1.90901 132.489 1.97253L132.118 3.93775ZM123.084 2.56948C122.75 2.53244 122.417 2.49711 122.085 2.46352L122.286 0.47365C122.625 0.507899 122.964 0.543914 123.305 0.581666L123.084 2.56948ZM113.997 2.00283C113.83 2.00134 113.664 2.00039 113.498 2L113.502 2.86102e-06C113.673 0.00041014 113.844 0.00137895 114.014 0.00290483L113.997 2.00283ZM113.498 2C113.33 1.9996 113.163 1.99975 112.995 2.00045L112.986 0.000469089C113.159 -0.000250816 113.331 -0.000407696 113.502 2.86102e-06L113.498 2ZM104.839 2.42813C104.504 2.46055 104.168 2.49474 103.831 2.53067L103.619 0.541938C103.962 0.50533 104.305 0.470479 104.647 0.437415L104.839 2.42813ZM95.7203 3.69217C95.387 3.75125 95.0533 3.81172 94.7192 3.87357L94.3552 1.90696C94.6942 1.84422 95.0329 1.78285 95.3711 1.72288L95.7203 3.69217ZM86.6956 5.59105C86.3641 5.67108 86.0323 5.75223 85.7003 5.83448L85.2194 3.89317C85.5552 3.80997 85.8909 3.72787 86.2263 3.64689L86.6956 5.59105ZM77.7754 7.98637C77.4464 8.08314 77.1175 8.18079 76.7886 8.27931L76.2148 6.3634C76.5468 6.26396 76.8788 6.16538 77.2109 6.06768L77.7754 7.98637ZM68.9599 10.7816C68.6354 10.8916 68.3111 11.0023 67.987 11.1136L67.3373 9.22208C67.6639 9.10989 67.9908 8.99834 68.3179 8.88747L68.9599 10.7816ZM60.2471 13.9072C59.9265 14.0283 59.6064 14.1499 59.2867 14.272L58.5733 12.4035C58.8952 12.2806 59.2175 12.1582 59.5403 12.0362L60.2471 13.9072ZM51.6343 17.3117C51.3169 17.4425 51.0002 17.5736 50.6843 17.705L49.9164 15.8583C50.2342 15.7261 50.5528 15.5942 50.8721 15.4626L51.6343 17.3117ZM43.1173 20.9572C42.8028 21.0966 42.4893 21.2362 42.1768 21.3758L41.3611 19.5497C41.6752 19.4094 41.9904 19.2691 42.3065 19.1289L43.1173 20.9572ZM34.6909 24.8164C34.3798 24.9634 34.0701 25.1101 33.7619 25.2567L32.9032 23.4504C33.2129 23.3031 33.5242 23.1557 33.8368 23.008L34.6909 24.8164ZM26.3548 28.8685C26.0495 29.0211 25.7463 29.1731 25.4452 29.3245L24.5468 27.5376C24.8494 27.3855 25.154 27.2328 25.4608 27.0795L26.3548 28.8685ZM18.1248 33.0924C17.8114 33.2574 17.5017 33.4211 17.1956 33.5833L16.2591 31.8161C16.5667 31.6532 16.8778 31.4887 17.1926 31.3229L18.1248 33.0924ZM9.97362 37.501C9.65778 37.6765 9.34972 37.8482 9.04962 38.016L8.07355 36.2703C8.37521 36.1017 8.68488 35.929 9.00233 35.7527L9.97362 37.501ZM1.91068 42.1263C1.7807 42.2041 1.68248 42.2632 1.61699 42.3027C1.58423 42.3225 1.55968 42.3374 1.54341 42.3472C1.53529 42.3521 1.52924 42.3558 1.52528 42.3582C1.5233 42.3594 1.52185 42.3603 1.52092 42.3609C1.52045 42.3611 1.52013 42.3614 1.51991 42.3615C1.51982 42.3615 1.51974 42.3616 1.51971 42.3616C1.5197 42.3616 1.51968 42.3616 1.51968 42.3616C1.51968 42.3616 1.51968 42.3616 1.51968 42.3616L1.5197 42.3616C1.5197 42.3616 1.5197 42.3616 1 41.5073C0.480301 40.6529 0.480301 40.6529 0.480301 40.6529C0.480316 40.6529 0.480316 40.6529 0.480316 40.6529C0.480331 40.6529 0.480347 40.6529 0.480362 40.6529C0.480392 40.6529 0.480438 40.6528 0.480484 40.6528C0.480576 40.6527 0.480713 40.6527 0.480865 40.6526C0.481201 40.6524 0.481659 40.6521 0.482239 40.6517C0.483414 40.651 0.485123 40.65 0.48735 40.6486C0.491791 40.6459 0.498337 40.642 0.506958 40.6367C0.524216 40.6263 0.549774 40.6108 0.583542 40.5904C0.651062 40.5497 0.751358 40.4893 0.883423 40.4103L1.91068 42.1263Z" fill="white"/>
</svg>
