<svg width="71" height="167" viewBox="0 0 71 167" fill="none" xmlns="http://www.w3.org/2000/svg">
<path d="M2.07873 88.1841L2.57456 88.1197L2.07873 88.1841ZM69.7569 161.845C69.8518 162.104 69.7184 162.391 69.459 162.486L65.2327 164.032C64.9733 164.126 64.6862 163.993 64.5914 163.734C64.4966 163.474 64.6299 163.187 64.8893 163.092L68.646 161.719L67.2724 157.962C67.1776 157.703 67.311 157.416 67.5703 157.321C67.8296 157.226 68.1168 157.359 68.2116 157.619L69.7569 161.845ZM57.9483 1.02322C58.2248 1.43979 58.2248 1.43979 58.2248 1.43978C58.2248 1.43978 58.2248 1.43978 58.2248 1.43978C58.2248 1.43978 58.2248 1.43978 58.2248 1.43978C58.2248 1.43978 58.2248 1.43979 58.2248 1.4398C58.2248 1.43982 58.2247 1.43987 58.2246 1.43993C58.2244 1.44006 58.2241 1.44027 58.2237 1.44057C58.2228 1.44116 58.2214 1.44209 58.2195 1.44335C58.2157 1.44586 58.2099 1.44971 58.2022 1.45487C58.1868 1.4652 58.1635 1.48082 58.1325 1.50167C58.0706 1.54337 57.978 1.606 57.8563 1.68913L57.2922 0.863433C57.4158 0.778998 57.5102 0.715095 57.574 0.672155C57.6059 0.650685 57.6301 0.634454 57.6465 0.623518C57.6547 0.61805 57.6609 0.613905 57.6651 0.611091C57.6672 0.609683 57.6688 0.608609 57.6699 0.607868C57.6705 0.607496 57.6709 0.60721 57.6712 0.607006C57.6714 0.606904 57.6715 0.606821 57.6716 0.606762C57.6716 0.606732 57.6717 0.606706 57.6717 0.606687C57.6717 0.606678 57.6717 0.606669 57.6718 0.606661C57.6718 0.606657 57.6718 0.606653 57.6718 0.606652C57.6718 0.606647 57.6718 0.606643 57.9483 1.02322ZM51.3951 6.42219C51.1317 6.62545 50.8622 6.83449 50.587 7.04922L49.9718 6.26083C50.2485 6.04495 50.5194 5.83478 50.7843 5.63042L51.3951 6.42219ZM44.3843 12.0996C44.1339 12.3122 43.8815 12.5275 43.6271 12.7456L42.9762 11.9865C43.2318 11.7673 43.4856 11.5508 43.7372 11.3372L44.3843 12.0996ZM37.6649 18.0747C37.4209 18.3022 37.176 18.5316 36.9304 18.763L36.2446 18.0352C36.4916 17.8026 36.7377 17.5719 36.9831 17.3432L37.6649 18.0747ZM31.227 24.3805C30.9957 24.619 30.7643 24.859 30.5328 25.1005L29.8109 24.4085C30.0437 24.1656 30.2765 23.9242 30.5092 23.6843L31.227 24.3805ZM25.1433 31.0105C24.9266 31.2609 24.7104 31.5124 24.4946 31.7651L23.7341 31.1158C23.9514 30.8613 24.1691 30.6081 24.3872 30.3561L25.1433 31.0105ZM19.4795 37.9922C19.279 38.2571 19.0793 38.5231 18.8805 38.7901L18.0784 38.193C18.2788 37.9239 18.48 37.6557 18.6822 37.3887L19.4795 37.9922ZM14.3305 45.3564C14.151 45.6365 13.9727 45.9174 13.7958 46.1992L12.9489 45.6675C13.1275 45.383 13.3075 45.0994 13.4887 44.8167L14.3305 45.3564ZM9.83258 53.1252C9.6801 53.4207 9.52938 53.7168 9.38047 54.0138L8.48659 53.5654C8.63726 53.265 8.78973 52.9654 8.94395 52.6666L9.83258 53.1252ZM6.16622 61.3055C6.04852 61.6158 5.93306 61.9268 5.81988 62.2384L4.87996 61.897C4.99476 61.5809 5.11185 61.2656 5.2312 60.9509L6.16622 61.3055ZM3.55945 69.8658C3.48569 70.1888 3.41466 70.5124 3.34641 70.8365L2.36788 70.6304C2.4373 70.3008 2.50954 69.9717 2.58454 69.6432L3.55945 69.8658ZM2.26788 78.7044C2.24739 79.0351 2.23008 79.3662 2.216 79.6977L1.2169 79.6552C1.23126 79.3173 1.24891 78.9797 1.2698 78.6426L2.26788 78.7044ZM2.51275 87.6237C2.53248 87.7889 2.55308 87.9543 2.57456 88.1197L1.58289 88.2485C1.56096 88.0796 1.53993 87.9109 1.5198 87.7422L2.51275 87.6237ZM2.57456 88.1197C2.59509 88.2777 2.61629 88.4355 2.63817 88.5931L1.64767 88.7306C1.62539 88.5701 1.6038 88.4094 1.58289 88.2485L2.57456 88.1197ZM4.195 96.0314C4.28058 96.3369 4.36859 96.6416 4.459 96.9453L3.50055 97.2306C3.40862 96.9217 3.31911 96.6119 3.23207 96.3012L4.195 96.0314ZM7.07722 104.088C7.20405 104.379 7.33295 104.669 7.46391 104.958L6.553 105.371C6.42011 105.077 6.28927 104.783 6.16054 104.488L7.07722 104.088ZM10.977 111.717C11.1378 111.99 11.3003 112.263 11.4645 112.535L10.6083 113.052C10.4421 112.777 10.2775 112.5 10.1146 112.223L10.977 111.717ZM15.7017 118.876C15.8899 119.133 16.0794 119.388 16.2702 119.643L15.47 120.243C15.2772 119.985 15.0857 119.727 14.8954 119.468L15.7017 118.876ZM21.0833 125.568C21.2934 125.808 21.5044 126.047 21.7163 126.285L20.9699 126.95C20.756 126.71 20.543 126.469 20.331 126.227L21.0833 125.568ZM26.9869 131.816C27.2144 132.041 27.4426 132.264 27.6712 132.485L26.9748 133.203C26.7444 132.979 26.5145 132.755 26.2852 132.529L26.9869 131.816ZM33.309 137.651C33.5504 137.86 33.7918 138.068 34.0335 138.275L33.3834 139.035C33.1401 138.827 32.8969 138.617 32.654 138.407L33.309 137.651ZM39.9702 143.102C40.2217 143.296 40.4729 143.489 40.7238 143.681L40.1165 144.476C39.8642 144.283 39.6114 144.088 39.3584 143.893L39.9702 143.102ZM46.9017 148.186C47.1678 148.371 47.4328 148.555 47.6966 148.736L47.1298 149.56C46.8644 149.377 46.5979 149.193 46.3304 149.007L46.9017 148.186ZM54.0974 152.946C54.366 153.114 54.6323 153.281 54.8963 153.445L54.3686 154.294C54.1032 154.129 53.8354 153.962 53.5654 153.792L54.0974 152.946ZM61.4892 157.353C61.7728 157.513 62.0503 157.669 62.3217 157.82L61.8349 158.694C61.562 158.542 61.2828 158.385 60.9976 158.224L61.4892 157.353ZM69.1125 161.38C69.24 161.441 69.3369 161.487 69.4016 161.518C69.434 161.533 69.4583 161.545 69.4745 161.552C69.4825 161.556 69.4885 161.559 69.4924 161.561C69.4944 161.562 69.4959 161.562 69.4968 161.563C69.4972 161.563 69.4976 161.563 69.4978 161.563C69.4979 161.563 69.4979 161.563 69.498 161.563C69.498 161.563 69.498 161.563 69.498 161.563C69.498 161.563 69.498 161.563 69.498 161.563C69.498 161.563 69.498 161.563 69.498 161.563C69.498 161.563 69.498 161.563 69.2873 162.017C69.0767 162.47 69.0767 162.47 69.0767 162.47C69.0767 162.47 69.0767 162.47 69.0767 162.47C69.0766 162.47 69.0766 162.47 69.0766 162.47C69.0766 162.47 69.0765 162.47 69.0765 162.47C69.0764 162.47 69.0763 162.47 69.0761 162.47C69.0758 162.47 69.0753 162.47 69.0747 162.469C69.0736 162.469 69.0719 162.468 69.0696 162.467C69.0652 162.465 69.0587 162.462 69.0501 162.458C69.033 162.45 69.0076 162.438 68.9742 162.422C68.9073 162.39 68.8083 162.343 68.6787 162.281L69.1125 161.38ZM2.07873 88.1841L3.0704 88.0553L2.07873 88.1841ZM70.2265 161.673C70.4162 162.192 70.1494 162.766 69.6307 162.956L61.178 166.047C60.6594 166.236 60.0851 165.969 59.8955 165.451C59.7058 164.932 59.9725 164.358 60.4912 164.168L68.0047 161.421L65.2575 153.907C65.0678 153.389 65.3346 152.814 65.8533 152.625C66.372 152.435 66.9462 152.702 67.1359 153.221L70.2265 161.673ZM57.9483 1.02322C58.5014 1.85637 58.5014 1.85636 58.5014 1.85635C58.5014 1.85635 58.5014 1.85634 58.5014 1.85634C58.5014 1.85634 58.5014 1.85633 58.5014 1.85633C58.5014 1.85632 58.5014 1.85631 58.5014 1.85632C58.5014 1.85632 58.5014 1.85635 58.5013 1.85639C58.5012 1.85649 58.5009 1.85666 58.5005 1.85692C58.4997 1.85744 58.4985 1.85829 58.4967 1.85947C58.4931 1.86184 58.4876 1.86553 58.4801 1.87055C58.4651 1.88058 58.4422 1.89589 58.4117 1.91643C58.3507 1.9575 58.2591 2.0195 58.1384 2.10197L57.0101 0.450588C57.1347 0.365497 57.2301 0.300958 57.2948 0.257397C57.3271 0.235617 57.3518 0.219081 57.3686 0.207841C57.377 0.202222 57.3835 0.197926 57.3879 0.194962C57.3901 0.19348 57.3918 0.192332 57.3931 0.191516C57.3937 0.191107 57.3942 0.190783 57.3945 0.190543C57.3947 0.190422 57.3949 0.190322 57.395 0.190244C57.395 0.190205 57.3951 0.19017 57.3951 0.19014C57.3952 0.190126 57.3952 0.190113 57.3952 0.190103C57.3952 0.190095 57.3952 0.190087 57.3952 0.190085C57.3952 0.190077 57.3953 0.190069 57.9483 1.02322ZM51.7005 6.81808C51.4378 7.02078 51.169 7.22925 50.8946 7.44341L49.6642 5.86663C49.9416 5.65018 50.2133 5.43945 50.4789 5.23453L51.7005 6.81808ZM44.7079 12.4808C44.4581 12.6928 44.2063 12.9076 43.9526 13.1252L42.6507 11.6069C42.907 11.3871 43.1614 11.1702 43.4137 10.956L44.7079 12.4808ZM38.0058 18.4404C37.7624 18.6673 37.5182 18.8962 37.2733 19.1269L35.9017 17.6713C36.1493 17.438 36.3962 17.2067 36.6422 16.9774L38.0058 18.4404ZM31.5859 24.7286C31.3553 24.9664 31.1245 25.2057 30.8938 25.4465L29.4499 24.0625C29.6834 23.8189 29.9169 23.5768 30.1503 23.3361L31.5859 24.7286ZM25.5214 31.3378C25.3054 31.5873 25.0899 31.8379 24.8748 32.0898L23.3538 30.7911C23.5719 30.5358 23.7903 30.2817 24.0092 30.0288L25.5214 31.3378ZM19.8782 38.2939C19.6785 38.5578 19.4796 38.8228 19.2816 39.0887L17.6773 37.8944C17.8785 37.6242 18.0806 37.355 18.2835 37.0869L19.8782 38.2939ZM14.7514 45.6263C14.5727 45.905 14.3953 46.1846 14.2193 46.465L12.5254 45.4016C12.7049 45.1157 12.8857 44.8308 13.0678 44.5468L14.7514 45.6263ZM10.2769 53.3545C10.1253 53.6483 9.97545 53.9427 9.8274 54.2379L8.03965 53.3413C8.19119 53.0391 8.34454 52.7378 8.49964 52.4373L10.2769 53.3545ZM6.63373 61.4828C6.51686 61.7909 6.40221 62.0997 6.28984 62.4091L4.41 61.7263C4.52561 61.408 4.64352 61.0904 4.76369 60.7736L6.63373 61.4828ZM4.04691 69.9771C3.97377 70.2974 3.90335 70.6182 3.83568 70.9395L1.87861 70.5273C1.94862 70.1949 2.02146 69.8631 2.09708 69.5319L4.04691 69.9771ZM2.76693 78.7354C2.74664 79.0629 2.72949 79.3907 2.71555 79.7189L0.717351 79.634C0.731849 79.2928 0.749667 78.952 0.770753 78.6117L2.76693 78.7354ZM3.00923 87.5644C3.02875 87.728 3.04914 87.8916 3.0704 88.0553L1.08706 88.3129C1.06491 88.1423 1.04366 87.9718 1.02332 87.8014L3.00923 87.5644ZM3.0704 88.0553C3.09073 88.2118 3.11174 88.3682 3.13342 88.5244L1.15242 88.7994C1.12994 88.6374 1.10815 88.4753 1.08706 88.3129L3.0704 88.0553ZM4.67647 95.8965C4.76131 96.1994 4.84858 96.5015 4.93823 96.8027L3.02133 97.3732C2.92863 97.0618 2.83837 96.7494 2.7506 96.436L4.67647 95.8965ZM7.53556 103.888C7.66143 104.177 7.78937 104.465 7.91936 104.752L6.09755 105.577C5.96369 105.281 5.83189 104.985 5.7022 104.687L7.53556 103.888ZM11.4082 111.463C11.5679 111.736 11.7294 112.007 11.8925 112.277L10.1803 113.311C10.013 113.033 9.84738 112.755 9.68346 112.476L11.4082 111.463ZM16.1049 118.58C16.2921 118.836 16.4805 119.09 16.6703 119.343L15.07 120.542C14.8761 120.284 14.6835 120.024 14.4923 119.763L16.1049 118.58ZM21.4595 125.239C21.6685 125.478 21.8786 125.715 22.0896 125.952L20.5966 127.283C20.3818 127.042 20.1679 126.8 19.9549 126.557L21.4595 125.239ZM27.3378 131.46C27.5644 131.683 27.7916 131.906 28.0194 132.127L26.6266 133.562C26.3953 133.337 26.1645 133.112 25.9343 132.885L27.3378 131.46ZM33.6366 137.273C33.8771 137.482 34.1177 137.689 34.3585 137.895L33.0583 139.415C32.8142 139.206 32.5702 138.996 32.3264 138.784L33.6366 137.273ZM40.2761 142.706C40.5269 142.9 40.7773 143.093 41.0274 143.284L39.8129 144.873C39.5598 144.679 39.3063 144.484 39.0525 144.288L40.2761 142.706ZM47.1874 147.776C47.4527 147.96 47.7169 148.143 47.9801 148.324L46.8463 149.972C46.5802 149.789 46.313 149.604 46.0447 149.417L47.1874 147.776ZM54.3634 152.522C54.6313 152.69 54.8969 152.856 55.1602 153.02L54.1047 154.719C53.8386 154.553 53.5701 154.386 53.2994 154.216L54.3634 152.522ZM61.735 156.918C62.0177 157.077 62.2945 157.233 62.5651 157.383L61.5915 159.131C61.3178 158.978 61.0378 158.821 60.7518 158.66L61.735 156.918ZM69.3295 160.929C69.4559 160.99 69.5517 161.036 69.6154 161.066C69.6472 161.081 69.671 161.092 69.6866 161.099C69.6944 161.103 69.7002 161.106 69.7038 161.108C69.7057 161.108 69.707 161.109 69.7078 161.109C69.7082 161.11 69.7085 161.11 69.7086 161.11C69.7087 161.11 69.7087 161.11 69.7087 161.11C69.7087 161.11 69.7087 161.11 69.7087 161.11C69.7087 161.11 69.7087 161.11 69.7086 161.11C69.7086 161.11 69.7086 161.11 69.7086 161.11C69.7086 161.11 69.7086 161.11 69.2873 162.017C68.866 162.924 68.866 162.924 68.866 162.924C68.866 162.924 68.866 162.924 68.866 162.924C68.866 162.924 68.866 162.924 68.8659 162.924C68.8659 162.924 68.8658 162.924 68.8658 162.923C68.8656 162.923 68.8655 162.923 68.8653 162.923C68.8649 162.923 68.8644 162.923 68.8637 162.923C68.8624 162.922 68.8606 162.921 68.8582 162.92C68.8535 162.918 68.8468 162.915 68.8379 162.91C68.8203 162.902 68.7944 162.89 68.7604 162.874C68.6925 162.842 68.5925 162.794 68.4617 162.731L69.3295 160.929Z" fill="white"/>
</svg>
