<svg width="226" height="46" viewBox="0 0 226 46" fill="none" xmlns="http://www.w3.org/2000/svg">
<path d="M112.5 1.5L112.501 2L112.5 1.5ZM225.118 42.4931C225.387 42.4277 225.551 42.1572 225.486 41.8889L224.421 37.5167C224.356 37.2484 224.085 37.0839 223.817 37.1493C223.549 37.2146 223.384 37.4851 223.449 37.7534L224.396 41.6398L220.509 42.5863C220.241 42.6516 220.077 42.9221 220.142 43.1904C220.207 43.4587 220.478 43.6232 220.746 43.5579L225.118 42.4931ZM1 42.0073C1.26062 42.434 1.26062 42.434 1.26061 42.434C1.26061 42.434 1.26061 42.434 1.26061 42.434C1.26061 42.434 1.26062 42.434 1.26062 42.434C1.26063 42.434 1.26065 42.4339 1.26067 42.4339C1.26072 42.4339 1.2608 42.4339 1.26092 42.4338C1.26115 42.4336 1.26151 42.4334 1.262 42.4331C1.26298 42.4325 1.26449 42.4316 1.26651 42.4304C1.27055 42.4279 1.27667 42.4242 1.28485 42.4192C1.3012 42.4093 1.32579 42.3943 1.35849 42.3745C1.4239 42.3349 1.52175 42.2757 1.65107 42.198L1.13589 41.3409C1.00552 41.4193 0.906638 41.479 0.840225 41.5193C0.807018 41.5394 0.781929 41.5546 0.765081 41.5649C0.756657 41.57 0.750293 41.5739 0.746005 41.5765C0.743861 41.5778 0.742235 41.5788 0.741131 41.5795C0.740579 41.5798 0.740157 41.5801 0.739865 41.5803C0.73972 41.5803 0.739606 41.5804 0.739526 41.5805C0.739486 41.5805 0.739454 41.5805 0.73943 41.5805C0.739418 41.5805 0.739408 41.5805 0.7394 41.5805C0.739396 41.5805 0.739392 41.5805 0.73939 41.5805C0.739386 41.5806 0.739382 41.5806 1 42.0073ZM8.73797 38.0996C9.03576 37.9323 9.34146 37.7611 9.65488 37.5862L9.16751 36.713C8.85328 36.8884 8.54679 37.06 8.24821 37.2277L8.73797 38.0996ZM16.8199 33.6806C17.1236 33.5188 17.4309 33.3556 17.7418 33.191L17.2739 32.3073C16.9623 32.4723 16.6542 32.6358 16.3498 32.798L16.8199 33.6806ZM25.004 29.4334C25.3028 29.2824 25.6036 29.1308 25.9065 28.9786L25.4575 28.085C25.1539 28.2376 24.8523 28.3896 24.5529 28.541L25.004 29.4334ZM33.2552 25.3747C33.561 25.2284 33.8683 25.082 34.177 24.9353L33.7478 24.0321C33.4384 24.1791 33.1303 24.3259 32.8238 24.4726L33.2552 25.3747ZM41.6045 21.5001C41.9146 21.3607 42.2257 21.2213 42.5377 21.082L42.1301 20.1688C41.8172 20.3085 41.5053 20.4483 41.1944 20.5881L41.6045 21.5001ZM50.0469 17.8324C50.3605 17.7011 50.6748 17.57 50.9897 17.4392L50.6062 16.5156C50.2903 16.6468 49.9751 16.7783 49.6605 16.91L50.0469 17.8324ZM58.5852 14.3987C58.9025 14.2765 59.2203 14.1548 59.5386 14.0336L59.1826 13.0991C58.8633 13.2208 58.5443 13.3429 58.2259 13.4654L58.5852 14.3987ZM67.223 11.2354C67.5448 11.1238 67.8668 11.0128 68.189 10.9026L67.8652 9.95644C67.5417 10.0672 67.2184 10.1785 66.8953 10.2906L67.223 11.2354ZM75.9646 8.3911C76.2913 8.29211 76.6181 8.19396 76.9449 8.0967L76.6596 7.13825C76.3313 7.23599 76.0029 7.3346 75.6746 7.43405L75.9646 8.3911ZM84.8202 5.93032C85.1502 5.84736 85.48 5.76548 85.8096 5.6847L85.5716 4.71344C85.2401 4.7947 84.9083 4.87705 84.5764 4.96049L84.8202 5.93032ZM93.7891 3.94644C94.1215 3.88361 94.4536 3.82213 94.7851 3.76203L94.6068 2.77807C94.2727 2.83861 93.9382 2.90055 93.6034 2.96384L93.7891 3.94644ZM102.86 2.57253C103.196 2.53531 103.531 2.49981 103.865 2.46605L103.765 1.47112C103.427 1.5052 103.089 1.54104 102.75 1.57862L102.86 2.57253ZM111.999 2.00285C112.167 2.00135 112.334 2.0004 112.501 2L112.499 1C112.329 1.00041 112.16 1.00137 111.99 1.00288L111.999 2.00285ZM112.501 2C112.67 1.9996 112.838 1.99975 113.008 2.00046L113.012 1.00046C112.84 0.999749 112.67 0.999593 112.499 1L112.501 2ZM121.209 2.43045C121.546 2.46304 121.883 2.49739 122.222 2.53348L122.328 1.53912C121.986 1.50268 121.645 1.468 121.305 1.43509L121.209 2.43045ZM130.367 3.69984C130.701 3.75915 131.036 3.81985 131.372 3.88192L131.554 2.89862C131.216 2.83609 130.879 2.77495 130.542 2.7152L130.367 3.69984ZM139.422 5.60501C139.754 5.68528 140.087 5.76667 140.42 5.84915L140.66 4.8785C140.326 4.79554 139.991 4.71368 139.656 4.63293L139.422 5.60501ZM148.366 8.0067C148.695 8.1037 149.025 8.20158 149.355 8.30033L149.642 7.34238C149.311 7.24317 148.979 7.14482 148.648 7.04735L148.366 8.0067ZM157.201 10.8081C157.526 10.9183 157.851 11.0292 158.175 11.1407L158.5 10.195C158.174 10.083 157.848 9.97166 157.522 9.86101L157.201 10.8081ZM165.93 13.9395C166.251 14.0608 166.571 14.1826 166.892 14.3048L167.248 13.3706C166.927 13.2479 166.605 13.1257 166.283 13.004L165.93 13.9395ZM174.556 17.3494C174.874 17.4804 175.191 17.6118 175.508 17.7433L175.892 16.82C175.574 16.688 175.256 16.5563 174.937 16.4249L174.556 17.3494ZM183.085 21.0001C183.4 21.1398 183.714 21.2795 184.027 21.4193L184.435 20.5062C184.121 20.3661 183.807 20.226 183.491 20.086L183.085 21.0001ZM191.523 24.8643C191.834 25.0114 192.144 25.1584 192.453 25.3051L192.882 24.402C192.573 24.2549 192.262 24.1076 191.95 23.9601L191.523 24.8643ZM199.869 28.9213C200.174 29.074 200.478 29.2262 200.779 29.3778L201.229 28.4843C200.926 28.3324 200.622 28.1799 200.316 28.0268L199.869 28.9213ZM208.108 33.15C208.422 33.3153 208.732 33.4791 209.039 33.6415L209.507 32.7579C209.2 32.5951 208.889 32.4309 208.574 32.2653L208.108 33.15ZM216.269 37.5639C216.585 37.7396 216.894 37.9115 217.194 38.0796L217.682 37.2067C217.381 37.0383 217.072 36.8659 216.755 36.6897L216.269 37.5639ZM224.346 42.1973C224.477 42.2754 224.575 42.3348 224.641 42.3747C224.674 42.3946 224.699 42.4096 224.716 42.4196C224.724 42.4246 224.73 42.4283 224.734 42.4308C224.736 42.4321 224.738 42.433 224.739 42.4336C224.739 42.4339 224.74 42.4341 224.74 42.4342C224.74 42.4343 224.74 42.4344 224.74 42.4344C224.74 42.4344 224.74 42.4344 224.74 42.4344C224.74 42.4344 224.74 42.4344 224.74 42.4344V42.4344C224.74 42.4344 224.74 42.4344 225 42.0073C225.26 41.5801 225.26 41.5801 225.26 41.5801C225.26 41.5801 225.26 41.5801 225.26 41.5801C225.26 41.5801 225.26 41.5801 225.26 41.5801C225.26 41.58 225.26 41.58 225.26 41.58C225.26 41.5799 225.26 41.5799 225.259 41.5798C225.259 41.5796 225.259 41.5794 225.258 41.579C225.257 41.5783 225.255 41.5773 225.253 41.576C225.249 41.5734 225.242 41.5695 225.234 41.5644C225.217 41.5541 225.192 41.5387 225.158 41.5185C225.091 41.4781 224.991 41.418 224.86 41.3393L224.346 42.1973ZM112.5 1.5L112.502 2.5L112.5 1.5ZM225.237 42.9789C225.773 42.8482 226.102 42.3072 225.972 41.7706L223.842 33.0262C223.711 32.4896 223.17 32.1606 222.634 32.2913C222.097 32.4219 221.768 32.9629 221.899 33.4995L223.792 41.2723L216.019 43.1653C215.482 43.296 215.153 43.8369 215.284 44.3735C215.415 44.9101 215.956 45.2392 216.492 45.1085L225.237 42.9789ZM1 42.0073C1.52124 42.8607 1.52123 42.8607 1.52123 42.8607C1.52122 42.8607 1.52122 42.8607 1.52122 42.8607C1.52122 42.8607 1.52121 42.8607 1.52121 42.8607C1.52122 42.8607 1.52122 42.8607 1.52124 42.8607C1.52128 42.8606 1.52134 42.8606 1.52144 42.8605C1.52164 42.8604 1.52198 42.8602 1.52244 42.8599C1.52336 42.8594 1.5248 42.8585 1.52676 42.8573C1.53068 42.8549 1.53667 42.8513 1.54473 42.8464C1.56083 42.8366 1.58517 42.8218 1.61763 42.8021C1.68253 42.7628 1.77987 42.7039 1.90867 42.6265L0.878291 40.9124C0.747404 40.991 0.648008 41.0511 0.581092 41.0917C0.547633 41.1119 0.522294 41.1273 0.505199 41.1377C0.496651 41.1429 0.490164 41.1469 0.485753 41.1496C0.483548 41.1509 0.481861 41.152 0.480696 41.1527C0.480113 41.153 0.479661 41.1533 0.479339 41.1535C0.479178 41.1536 0.47905 41.1537 0.478954 41.1537C0.478906 41.1538 0.478866 41.1538 0.478835 41.1538C0.478819 41.1538 0.478805 41.1538 0.478794 41.1538C0.478788 41.1538 0.478781 41.1538 0.478778 41.1538C0.478771 41.1538 0.478765 41.1538 1 42.0073ZM8.98284 38.5355C9.28024 38.3685 9.58554 38.1975 9.89857 38.0228L8.92382 36.2764C8.60919 36.452 8.3023 36.6239 8.00333 36.7918L8.98284 38.5355ZM17.0549 34.1219C17.3583 33.9604 17.6653 33.7973 17.9758 33.6329L17.0399 31.8654C16.728 32.0306 16.4196 32.1943 16.1148 32.3566L17.0549 34.1219ZM25.2296 29.8797C25.528 29.7288 25.8285 29.5774 26.131 29.4253L25.233 27.6383C24.929 27.791 24.6271 27.9432 24.3273 28.0947L25.2296 29.8797ZM33.4709 25.8258C33.7764 25.6797 34.0833 25.5334 34.3916 25.3869L33.5332 23.5804C33.2234 23.7277 32.915 23.8747 32.608 24.0215L33.4709 25.8258ZM41.8096 21.9561C42.1192 21.8169 42.4299 21.6777 42.7415 21.5386L41.9264 19.7123C41.613 19.8521 41.3007 19.9921 40.9894 20.132L41.8096 21.9561ZM50.24 18.2936C50.5532 18.1624 50.867 18.0316 51.1815 17.9009L50.4145 16.0539C50.0981 16.1853 49.7824 16.3169 49.4674 16.4489L50.24 18.2936ZM58.7648 14.8653C59.0816 14.7434 59.3989 14.6219 59.7166 14.5009L59.0046 12.6319C58.6847 12.7537 58.3653 12.876 58.0463 12.9988L58.7648 14.8653ZM67.3868 11.7078C67.7079 11.5964 68.0293 11.4857 68.3509 11.3756L67.7033 9.48337C67.3792 9.59432 67.0552 9.70592 66.7315 9.81817L67.3868 11.7078ZM76.1096 8.86962C76.4355 8.77086 76.7615 8.67295 77.0875 8.57592L76.517 6.65903C76.1878 6.757 75.8587 6.85584 75.5297 6.95553L76.1096 8.86962ZM84.9421 6.41523C85.2712 6.33251 85.6 6.25087 85.9287 6.17033L85.4526 4.22782C85.1201 4.30931 84.7874 4.3919 84.4545 4.47558L84.9421 6.41523ZM93.8819 4.43775C94.2132 4.37514 94.544 4.31389 94.8743 4.25402L94.5176 2.28608C94.1823 2.34685 93.8466 2.40901 93.5105 2.47253L93.8819 4.43775ZM102.916 3.06948C103.25 3.03244 103.583 2.99711 103.915 2.96352L103.714 0.97365C103.375 1.0079 103.036 1.04391 102.695 1.08167L102.916 3.06948ZM112.003 2.50283C112.17 2.50134 112.336 2.50039 112.502 2.5L112.498 0.500003C112.327 0.50041 112.156 0.501379 111.986 0.502905L112.003 2.50283ZM112.502 2.5C112.67 2.4996 112.837 2.49975 113.005 2.50045L113.014 0.500469C112.841 0.499749 112.669 0.499592 112.498 0.500003L112.502 2.5ZM121.161 2.92813C121.496 2.96055 121.832 2.99474 122.169 3.03067L122.381 1.04194C122.038 1.00533 121.695 0.970479 121.353 0.937415L121.161 2.92813ZM130.28 4.19217C130.613 4.25125 130.947 4.31172 131.281 4.37357L131.645 2.40696C131.306 2.34422 130.967 2.28285 130.629 2.22288L130.28 4.19217ZM139.304 6.09105C139.636 6.17108 139.968 6.25223 140.3 6.33448L140.781 4.39317C140.445 4.30997 140.109 4.22787 139.774 4.14689L139.304 6.09105ZM148.225 8.48637C148.554 8.58314 148.882 8.68079 149.211 8.77931L149.785 6.8634C149.453 6.76396 149.121 6.66538 148.789 6.56768L148.225 8.48637ZM157.04 11.2816C157.365 11.3916 157.689 11.5023 158.013 11.6136L158.663 9.72208C158.336 9.60989 158.009 9.49834 157.682 9.38747L157.04 11.2816ZM165.753 14.4072C166.073 14.5283 166.394 14.6499 166.713 14.772L167.427 12.9035C167.105 12.7806 166.782 12.6582 166.46 12.5362L165.753 14.4072ZM174.366 17.8117C174.683 17.9425 175 18.0736 175.316 18.205L176.084 16.3583C175.766 16.2261 175.447 16.0942 175.128 15.9626L174.366 17.8117ZM182.883 21.4572C183.197 21.5966 183.511 21.7362 183.823 21.8758L184.639 20.0497C184.325 19.9094 184.01 19.7691 183.693 19.6289L182.883 21.4572ZM191.309 25.3164C191.62 25.4634 191.93 25.6101 192.238 25.7567L193.097 23.9504C192.787 23.8031 192.476 23.6557 192.163 23.508L191.309 25.3164ZM199.645 29.3685C199.95 29.5211 200.254 29.6731 200.555 29.8245L201.453 28.0376C201.151 27.8855 200.846 27.7328 200.539 27.5795L199.645 29.3685ZM207.875 33.5924C208.189 33.7574 208.498 33.9211 208.804 34.0833L209.741 32.3161C209.433 32.1532 209.122 31.9887 208.807 31.8229L207.875 33.5924ZM216.026 38.001C216.342 38.1765 216.65 38.3482 216.95 38.516L217.926 36.7703C217.625 36.6017 217.315 36.429 216.998 36.2527L216.026 38.001ZM224.089 42.6263C224.219 42.7041 224.318 42.7632 224.383 42.8027C224.416 42.8225 224.44 42.8374 224.457 42.8472C224.465 42.8521 224.471 42.8558 224.475 42.8582C224.477 42.8594 224.478 42.8603 224.479 42.8609C224.48 42.8611 224.48 42.8614 224.48 42.8615C224.48 42.8615 224.48 42.8616 224.48 42.8616C224.48 42.8616 224.48 42.8616 224.48 42.8616C224.48 42.8616 224.48 42.8616 224.48 42.8616L224.48 42.8616C224.48 42.8616 224.48 42.8616 225 42.0073C225.52 41.1529 225.52 41.1529 225.52 41.1529C225.52 41.1529 225.52 41.1529 225.52 41.1529C225.52 41.1529 225.52 41.1529 225.52 41.1529C225.52 41.1529 225.52 41.1528 225.52 41.1528C225.519 41.1527 225.519 41.1527 225.519 41.1526C225.519 41.1524 225.518 41.1521 225.518 41.1517C225.517 41.151 225.515 41.15 225.513 41.1486C225.508 41.1459 225.502 41.142 225.493 41.1367C225.476 41.1263 225.45 41.1108 225.416 41.0904C225.349 41.0497 225.249 40.9893 225.117 40.9103L224.089 42.6263Z" fill="white"/>
</svg>
