<svg width="87" height="162" viewBox="0 0 87 162" fill="none" xmlns="http://www.w3.org/2000/svg">
<path d="M82.8613 97.9561L82.3901 97.7889L82.8613 97.9561ZM1.21293 155.747C1.06571 155.981 1.13575 156.29 1.36938 156.437L5.17652 158.836C5.41014 158.983 5.71889 158.913 5.86611 158.679C6.01332 158.446 5.94328 158.137 5.70966 157.99L2.32553 155.857L4.45806 152.473C4.60528 152.24 4.53523 151.931 4.30161 151.784C4.06798 151.636 3.75924 151.706 3.61203 151.94L1.21293 155.747ZM46.559 0.999581C46.2011 1.34873 46.2011 1.34873 46.2011 1.34872C46.2011 1.34872 46.2011 1.34872 46.2011 1.34872C46.2011 1.34871 46.2011 1.34871 46.2011 1.34871C46.2011 1.34872 46.2011 1.34873 46.2011 1.34874C46.2012 1.34877 46.2012 1.34883 46.2013 1.34891C46.2015 1.34908 46.2017 1.34935 46.2021 1.34974C46.2029 1.35051 46.204 1.3517 46.2056 1.35333C46.2088 1.35658 46.2136 1.36155 46.2201 1.36822C46.233 1.38157 46.2525 1.40174 46.2784 1.42863C46.3302 1.48242 46.4075 1.56311 46.509 1.66995L47.2341 0.981268C47.131 0.872744 47.0521 0.790416 46.9988 0.735029C46.9721 0.707338 46.9518 0.686378 46.9381 0.672247C46.9313 0.665183 46.9261 0.659823 46.9225 0.656185C46.9208 0.654363 46.9194 0.652976 46.9185 0.652016C46.918 0.651534 46.9177 0.651165 46.9174 0.650901C46.9173 0.650769 46.9172 0.650661 46.9171 0.650585C46.9171 0.650546 46.917 0.650512 46.917 0.650488C46.917 0.650476 46.917 0.650465 46.917 0.650454C46.917 0.650449 46.917 0.650443 46.917 0.650442C46.9169 0.650437 46.9169 0.650431 46.559 0.999581ZM51.8311 7.65529C52.046 7.90939 52.2655 8.17039 52.4894 8.43817L53.2565 7.79669C53.0314 7.52748 52.8107 7.26506 52.5947 7.00959L51.8311 7.65529ZM57.492 14.6795C57.6921 14.9398 57.8937 15.2034 58.0965 15.4701L58.8925 14.8648C58.6886 14.5967 58.4861 14.3318 58.2849 14.0701L57.492 14.6795ZM62.8055 21.9333C62.9963 22.207 63.1875 22.4828 63.3789 22.7607L64.2024 22.1932C64.0099 21.9139 63.8177 21.6366 63.6259 21.3614L62.8055 21.9333ZM67.7742 29.4514C67.9503 29.7332 68.1261 30.0165 68.3016 30.3012L69.1529 29.7764C68.9763 29.49 68.7994 29.205 68.6224 28.9215L67.7742 29.4514ZM72.3286 37.212C72.4878 37.5023 72.6464 37.7936 72.8042 38.0861L73.6842 37.6111C73.5253 37.3166 73.3656 37.0233 73.2053 36.731L72.3286 37.212ZM76.3985 45.2281C76.5388 45.5293 76.6782 45.8313 76.8164 46.1341L77.7261 45.7189C77.5868 45.4137 77.4463 45.1092 77.3049 44.8056L76.3985 45.2281ZM79.8846 53.51C80.0013 53.8216 80.1165 54.1337 80.2303 54.4463L81.17 54.1045C81.0552 53.7888 80.9389 53.4737 80.8211 53.1593L79.8846 53.51ZM82.6493 62.0507C82.7363 62.3716 82.8214 62.6928 82.9046 63.0144L83.8727 62.764C83.7885 62.4386 83.7024 62.1136 83.6145 61.7891L82.6493 62.0507ZM84.5144 70.8188C84.5643 71.1469 84.6118 71.4752 84.657 71.8037L85.6476 71.6675C85.6018 71.3343 85.5536 71.0014 85.5031 70.6686L84.5144 70.8188ZM85.2638 79.7358C85.268 80.0671 85.2694 80.3984 85.2681 80.7296L86.268 80.7338C86.2695 80.3969 86.268 80.06 86.2637 79.7231L85.2638 79.7358ZM84.6688 88.6485C84.6193 88.9761 84.5667 89.3034 84.5108 89.6304L85.4965 89.7989C85.5535 89.4655 85.6072 89.1318 85.6576 88.7978L84.6688 88.6485ZM82.5548 97.317C82.5008 97.4744 82.4459 97.6317 82.3901 97.7889L83.3326 98.1233C83.3895 97.9628 83.4455 97.8022 83.5007 97.6415L82.5548 97.317ZM82.3901 97.7889C82.3368 97.9391 82.2829 98.0889 82.2284 98.2384L83.1679 98.581C83.2234 98.4288 83.2783 98.2762 83.3326 98.1233L82.3901 97.7889ZM79.143 105.183C78.9951 105.464 78.845 105.743 78.6928 106.021L79.5699 106.502C79.7247 106.219 79.8773 105.935 80.0277 105.649L79.143 105.183ZM74.6318 112.454C74.4467 112.712 74.2597 112.968 74.0709 113.223L74.8748 113.818C75.0664 113.559 75.2561 113.299 75.4441 113.037L74.6318 112.454ZM69.2158 119.093C69.001 119.327 68.7848 119.559 68.5671 119.791L69.2955 120.476C69.5159 120.242 69.7349 120.006 69.9525 119.769L69.2158 119.093ZM63.0918 125.099C62.8539 125.311 62.6149 125.521 62.3749 125.729L63.0311 126.484C63.2737 126.273 63.5153 126.061 63.7558 125.847L63.0918 125.099ZM56.4239 130.511C56.1681 130.701 55.9116 130.89 55.6544 131.078L56.2444 131.886C56.5039 131.696 56.7627 131.505 57.0209 131.313L56.4239 130.511ZM49.3389 135.379C49.0694 135.55 48.7995 135.72 48.5293 135.889L49.0593 136.737C49.3316 136.567 49.6036 136.395 49.8753 136.223L49.3389 135.379ZM41.9317 139.754C41.6518 139.908 41.372 140.061 41.0923 140.212L41.5682 141.092C41.8498 140.939 42.1315 140.786 42.4133 140.631L41.9317 139.754ZM34.2737 143.683C33.9869 143.82 33.7008 143.956 33.4152 144.091L33.8419 144.996C34.1292 144.86 34.4171 144.723 34.7057 144.585L34.2737 143.683ZM26.4284 147.197C26.1294 147.322 25.8318 147.446 25.5356 147.568L25.9167 148.492C26.2145 148.37 26.5138 148.245 26.8145 148.119L26.4284 147.197ZM18.3931 150.338C18.0951 150.446 17.7997 150.553 17.5071 150.658L17.8446 151.599C18.1387 151.494 18.4357 151.387 18.7353 151.277L18.3931 150.338ZM10.24 153.093C9.92916 153.19 9.62507 153.284 9.328 153.375L9.62032 154.331C9.91913 154.24 10.225 154.146 10.5376 154.048L10.24 153.093ZM1.94069 155.428C1.80314 155.461 1.69876 155.486 1.62903 155.502C1.59417 155.51 1.56797 155.516 1.55062 155.52C1.54195 155.522 1.53549 155.524 1.53126 155.525C1.52915 155.525 1.5276 155.526 1.5266 155.526C1.52611 155.526 1.52575 155.526 1.52554 155.526C1.52543 155.526 1.52536 155.526 1.52532 155.526C1.52531 155.526 1.52529 155.526 1.52529 155.526C1.52529 155.526 1.52529 155.526 1.5253 155.526C1.52531 155.526 1.52531 155.526 1.52531 155.526C1.52531 155.526 1.52532 155.526 1.63595 156.014C1.74657 156.501 1.74658 156.501 1.74658 156.501C1.74659 156.501 1.7466 156.501 1.74661 156.501C1.74662 156.501 1.74663 156.501 1.74665 156.501C1.74669 156.501 1.74673 156.501 1.74678 156.501C1.74688 156.501 1.74702 156.501 1.7472 156.501C1.74755 156.501 1.74804 156.501 1.74868 156.501C1.74994 156.501 1.75177 156.5 1.75415 156.5C1.75893 156.499 1.76594 156.497 1.77517 156.495C1.79362 156.491 1.82094 156.484 1.85693 156.476C1.92892 156.459 2.0356 156.434 2.1755 156.4L1.94069 155.428ZM82.8613 97.9561L81.9189 97.6218L82.8613 97.9561ZM0.789918 155.481C0.495469 155.948 0.635565 156.565 1.10281 156.86L8.7171 161.658C9.18435 161.952 9.80183 161.812 10.0963 161.345C10.3907 160.878 10.2506 160.26 9.78336 159.966L3.01511 155.701L7.28017 148.933C7.57461 148.465 7.43452 147.848 6.96727 147.553C6.50001 147.259 5.88255 147.399 5.5881 147.866L0.789918 155.481ZM46.559 0.999581C45.8432 1.69788 45.8432 1.69787 45.8432 1.69786C45.8432 1.69786 45.8432 1.69785 45.8432 1.69785C45.8432 1.69784 45.8432 1.69783 45.8432 1.69783C45.8432 1.69782 45.8432 1.69781 45.8432 1.69782C45.8432 1.69782 45.8432 1.69786 45.8433 1.69792C45.8434 1.69804 45.8436 1.69827 45.8439 1.6986C45.8446 1.69927 45.8457 1.70037 45.8471 1.7019C45.8501 1.70496 45.8548 1.70974 45.861 1.71622C45.8736 1.72917 45.8927 1.74894 45.9182 1.77543C45.9692 1.82842 46.0458 1.90829 46.1465 2.0143L47.5966 0.636928C47.4927 0.52756 47.413 0.444413 47.3589 0.388227C47.3319 0.360135 47.3112 0.338782 47.2972 0.324258C47.2901 0.316998 47.2847 0.311443 47.281 0.307611C47.2791 0.305695 47.2777 0.30421 47.2767 0.303153C47.2762 0.302625 47.2757 0.302205 47.2754 0.301895C47.2753 0.301739 47.2752 0.301608 47.2751 0.301509C47.275 0.301458 47.275 0.301412 47.2749 0.301373C47.2749 0.301355 47.2749 0.301338 47.2749 0.301325C47.2749 0.301315 47.2749 0.301304 47.2749 0.301303C47.2749 0.301292 47.2748 0.301281 46.559 0.999581ZM51.4493 7.97815C51.6636 8.23155 51.8825 8.49185 52.1058 8.75891L53.6401 7.47595C53.4144 7.20602 53.1931 6.9429 52.9765 6.68673L51.4493 7.97815ZM57.0956 14.9841C57.2952 15.2439 57.4962 15.5068 57.6985 15.7728L59.2905 14.5621C59.0861 14.2934 58.883 14.0278 58.6814 13.7654L57.0956 14.9841ZM62.3953 22.2192C62.5856 22.4922 62.7763 22.7673 62.9672 23.0444L64.6141 21.9095C64.4211 21.6294 64.2284 21.3514 64.036 21.0755L62.3953 22.2192ZM67.3502 29.7163C67.5257 29.9972 67.701 30.2797 67.876 30.5636L69.5785 29.514C69.4014 29.2267 69.224 28.9409 69.0464 28.6566L67.3502 29.7163ZM71.8902 37.4525C72.0489 37.7418 72.2069 38.0321 72.3642 38.3236L74.1242 37.3736C73.9647 37.0781 73.8045 36.7838 73.6437 36.4906L71.8902 37.4525ZM75.9453 45.4393C76.0851 45.7393 76.2238 46.0401 76.3615 46.3417L78.181 45.5113C78.0411 45.2048 77.9001 44.8992 77.7581 44.5944L75.9453 45.4393ZM79.4164 53.6854C79.5325 53.9955 79.6472 54.3061 79.7604 54.6172L81.6399 53.9336C81.5246 53.6164 81.4077 53.2998 81.2893 52.9839L79.4164 53.6854ZM82.1667 62.1815C82.2532 62.5005 82.3378 62.8199 82.4205 63.1396L84.3568 62.6388C84.2721 62.3115 84.1855 61.9847 84.097 61.6583L82.1667 62.1815ZM84.0201 70.8939C84.0696 71.2197 84.1168 71.5457 84.1616 71.8718L86.143 71.5994C86.0969 71.2639 86.0483 70.9286 85.9974 70.5936L84.0201 70.8939ZM84.7638 79.7421C84.768 80.0707 84.7694 80.3991 84.7681 80.7275L86.768 80.7358C86.7695 80.3962 86.768 80.0564 86.7637 79.7167L84.7638 79.7421ZM84.1744 88.5738C84.1254 88.8983 84.0733 89.2224 84.0179 89.5462L85.9893 89.8832C86.0469 89.5465 86.1011 89.2096 86.152 88.8725L84.1744 88.5738ZM82.0819 97.1547C82.0284 97.3105 81.9741 97.4662 81.9189 97.6218L83.8038 98.2905C83.8613 98.1284 83.9179 97.9662 83.9736 97.8038L82.0819 97.1547ZM81.9189 97.6218C81.8661 97.7705 81.8127 97.919 81.7587 98.0671L83.6376 98.7523C83.6936 98.5987 83.749 98.4448 83.8038 98.2905L81.9189 97.6218ZM78.7006 104.95C78.554 105.229 78.4052 105.506 78.2543 105.781L80.0084 106.742C80.1645 106.457 80.3184 106.17 80.4701 105.883L78.7006 104.95ZM74.2257 112.162C74.042 112.418 73.8564 112.673 73.669 112.926L75.2767 114.116C75.4697 113.855 75.6609 113.593 75.8502 113.329L74.2257 112.162ZM68.8475 118.755C68.6341 118.987 68.4192 119.218 68.2029 119.448L69.6597 120.819C69.8815 120.583 70.1019 120.346 70.3208 120.107L68.8475 118.755ZM62.7598 124.726C62.5232 124.936 62.2855 125.145 62.0468 125.352L63.3593 126.861C63.6031 126.649 63.846 126.436 64.0878 126.221L62.7598 124.726ZM56.1254 130.11C55.8708 130.299 55.6155 130.488 55.3595 130.675L56.5393 132.29C56.8 132.099 57.06 131.907 57.3194 131.714L56.1254 130.11ZM49.0708 134.957C48.8023 135.127 48.5335 135.297 48.2643 135.465L49.3243 137.161C49.5976 136.99 49.8707 136.818 50.1435 136.645L49.0708 134.957ZM41.6909 139.316C41.412 139.469 41.1331 139.621 40.8544 139.772L41.8061 141.531C42.0887 141.378 42.3714 141.224 42.6542 141.069L41.6909 139.316ZM34.0578 143.232C33.7719 143.369 33.4865 143.505 33.2019 143.639L34.0552 145.448C34.3434 145.312 34.6322 145.175 34.9216 145.036L34.0578 143.232ZM26.2354 146.736C25.9372 146.861 25.6404 146.984 25.3451 147.105L26.1072 148.955C26.4059 148.831 26.706 148.707 27.0075 148.581L26.2354 146.736ZM18.222 149.868C17.9248 149.976 17.6302 150.083 17.3384 150.187L18.0133 152.07C18.3082 151.964 18.6059 151.857 18.9064 151.747L18.222 149.868ZM10.0912 152.616C9.78126 152.713 9.47804 152.806 9.18184 152.897L9.76648 154.81C10.0662 154.718 10.3729 154.623 10.6864 154.526L10.0912 152.616ZM1.82328 154.942C1.68691 154.975 1.58368 154.999 1.51508 155.015C1.48078 155.023 1.45514 155.029 1.43834 155.033C1.42994 155.035 1.42376 155.036 1.41981 155.037C1.41784 155.038 1.41642 155.038 1.41557 155.038C1.41514 155.038 1.41486 155.038 1.4147 155.039C1.41463 155.039 1.41459 155.039 1.41459 155.039C1.41459 155.039 1.4146 155.039 1.41462 155.039C1.41463 155.039 1.41463 155.039 1.41465 155.039C1.41465 155.039 1.41466 155.039 1.41467 155.039C1.41468 155.039 1.41469 155.039 1.63595 156.014C1.8572 156.989 1.85721 156.989 1.85723 156.989C1.85723 156.989 1.85724 156.989 1.85726 156.989C1.85728 156.989 1.8573 156.989 1.85733 156.989C1.85738 156.989 1.85744 156.989 1.85751 156.989C1.85765 156.989 1.85782 156.989 1.85803 156.989C1.85845 156.989 1.85901 156.989 1.85971 156.988C1.86111 156.988 1.86307 156.988 1.8656 156.987C1.87064 156.986 1.87794 156.984 1.88744 156.982C1.90645 156.978 1.93433 156.971 1.97089 156.963C2.044 156.945 2.15184 156.92 2.2929 156.886L1.82328 154.942Z" fill="white"/>
</svg>
