<svg width="149" height="148" viewBox="0 0 149 148" fill="none" xmlns="http://www.w3.org/2000/svg">
<circle cx="74.9189" cy="74" r="73.5" stroke="white" stroke-dasharray="2 8"/>
<path d="M55.1154 87.4527C55.2377 87.4527 55.3629 87.4302 55.4838 87.381C55.9887 87.1771 56.2319 86.6048 56.0294 86.0999L56.021 86.0774C56.0112 86.0521 55.9943 86.0156 55.9816 85.9902C55.7454 85.5009 55.1576 85.2942 54.6682 85.5304C54.1802 85.7652 53.9735 86.3502 54.2055 86.8396C54.3602 87.2221 54.7272 87.4527 55.1154 87.4527Z" fill="#E9E9E9"/>
<path d="M104.258 65.7222C101.268 65.7222 98.3348 66.1511 95.5139 66.9977C96.2831 64.9614 96.8681 63.7239 97.0017 63.4469C97.0031 63.4455 97.0087 63.4328 97.0087 63.4314C97.2042 63.0208 97.0931 62.53 96.7401 62.2446C96.3872 61.9577 95.8837 61.9521 95.5223 62.2277C93.8756 63.4877 92.2936 64.953 90.7917 66.6096C93.2611 57.0808 96.2029 50.9692 96.3436 50.681C96.3436 50.6796 96.3478 50.6725 96.3478 50.6711C96.5461 50.2605 96.4364 49.7683 96.0834 49.48C95.7304 49.1917 95.2256 49.1847 94.8642 49.4617C87.1383 55.3708 80.6372 64.2302 75.5395 75.7924C74.25 78.7216 73.0715 81.783 72.0394 84.8908C71.9297 85.2227 71.8214 85.5532 71.7159 85.8822C71.692 85.9567 71.6681 86.0327 71.6442 86.1072C71.5415 86.4307 71.4403 86.7513 71.3419 87.0691C71.339 87.0803 71.3348 87.0916 71.3306 87.1028C71.3208 87.0761 71.3095 87.0494 71.2983 87.0227C71.2364 86.8624 71.1717 86.7021 71.1056 86.5417C71.0887 86.5024 71.0733 86.463 71.0564 86.4236C70.979 86.238 70.8989 86.0524 70.8159 85.8696C70.799 85.8316 70.7822 85.795 70.7653 85.7571C70.6922 85.5967 70.619 85.4378 70.5431 85.2803C70.5262 85.2438 70.5093 85.2086 70.4911 85.1721C70.4025 84.9893 70.3111 84.8078 70.2183 84.6278C70.2 84.5941 70.1831 84.5603 70.1648 84.5252C70.0819 84.3663 69.9975 84.2088 69.9103 84.0513C69.8934 84.0189 69.8751 83.988 69.8583 83.9557C69.7584 83.7771 69.6572 83.5985 69.5531 83.4213C69.5348 83.3903 69.5165 83.3594 69.4969 83.3285C69.404 83.171 69.3084 83.0163 69.2114 82.8602C69.1931 82.8321 69.1762 82.8025 69.1579 82.7744C69.0483 82.6 68.9358 82.4271 68.8204 82.2541C68.8008 82.2246 68.7811 82.1964 68.7628 82.1683C68.6601 82.015 68.5547 81.8617 68.4478 81.7113C68.4295 81.6846 68.4112 81.6592 68.3929 81.6325C68.2734 81.4638 68.1511 81.2964 68.0259 81.1305C68.0048 81.1024 67.9837 81.0757 67.9626 81.0475C67.8515 80.8999 67.7376 80.7522 67.6223 80.6074C67.6026 80.5821 67.5829 80.5567 67.5633 80.5314C67.4339 80.3697 67.3031 80.2094 67.1695 80.0491C67.1456 80.021 67.1217 79.9928 67.0978 79.9647C66.9797 79.8255 66.8587 79.6863 66.7378 79.5485C66.7153 79.5232 66.6928 79.4964 66.6689 79.4711C66.5325 79.3178 66.3933 79.166 66.2512 79.0155C66.2231 78.9846 66.1936 78.955 66.1654 78.9255C66.0431 78.7975 65.9208 78.6696 65.7956 78.543C65.7675 78.5149 65.7394 78.4853 65.7112 78.4572C65.5678 78.3138 65.4229 78.1717 65.2767 78.0311C65.264 78.0199 65.2528 78.0072 65.2401 77.9946C65.0095 76.6825 64.7058 75.3311 64.3373 73.9727C62.5626 67.4364 59.6292 61.8832 57.7659 58.7571C58.4887 59.0875 59.2003 59.4419 59.895 59.8174C65.2415 62.7058 69.802 66.9442 73.0842 72.0742C73.3767 72.5327 73.987 72.6663 74.444 72.3724C74.9025 72.0799 75.0361 71.471 74.7422 71.0125C71.28 65.6013 66.4692 61.1308 60.8287 58.0849C59.1595 57.1849 57.4031 56.3988 55.6073 55.7519C55.2051 55.6071 54.7551 55.7407 54.4936 56.081C54.232 56.4213 54.2236 56.8938 54.4683 57.2453C54.6876 57.5603 59.8809 65.081 62.4347 74.4902C62.5514 74.9233 62.6597 75.3536 62.7623 75.7825C59.7487 70.4641 56.1994 66.2186 52.2042 63.1628C51.8442 62.8872 51.3422 62.8942 50.9892 63.1783C50.6362 63.4624 50.5223 63.9517 50.715 64.3624L50.7262 64.3849C50.8837 64.7111 52.162 67.4167 53.5008 71.7072C51.6979 71.3022 49.8487 71.0969 47.9826 71.0969C47.5523 71.0969 47.1726 71.3753 47.0447 71.786C46.9153 72.1952 47.0672 72.6424 47.4187 72.8885C47.4328 72.8983 48.3145 73.5185 49.5984 74.6224C48.2836 74.3692 46.9406 74.2427 45.5794 74.2427C45.1504 74.2427 44.7708 74.5211 44.6414 74.9317C44.512 75.3424 44.6639 75.7882 45.0154 76.0342C45.0619 76.0666 49.7278 79.3671 52.8019 84.2341C53.0915 84.6939 53.7004 84.8317 54.1603 84.5407C54.6201 84.251 54.7579 83.6421 54.4669 83.1822C52.6542 80.3107 50.3747 77.9875 48.659 76.4547C50.1117 76.6882 51.5306 77.0889 52.8989 77.6542C53.3292 77.8314 53.8256 77.6838 54.0872 77.2999C54.3501 76.916 54.3079 76.3999 53.9859 76.0638C52.9228 74.9528 51.9075 74.0121 51.0483 73.2653C52.2745 73.4285 53.4839 73.6886 54.6665 74.0444C55.042 74.1569 55.4273 74.2849 55.8098 74.4227C56.0672 74.5155 56.3231 74.6125 56.5762 74.7152C58.0964 75.3255 59.5462 76.0961 60.9019 77.0158C60.9989 77.0819 61.0931 77.1508 61.1887 77.2183C61.3167 77.3083 61.4461 77.3955 61.5712 77.4883C62.0353 77.8258 62.4993 78.1928 62.9479 78.5753C63.194 78.7863 63.4303 78.9972 63.6539 79.2053C63.862 79.398 64.0659 79.5949 64.2656 79.7946C64.3345 79.8635 64.4006 79.9352 64.4681 80.0041C64.5975 80.1363 64.7269 80.2671 64.8534 80.4021C64.9322 80.4864 65.0081 80.5736 65.0854 80.6594C65.1965 80.7817 65.309 80.9041 65.4173 81.0292C65.4975 81.1221 65.5748 81.2177 65.6536 81.3119C65.7548 81.4328 65.8575 81.5524 65.9559 81.6747C66.0347 81.7732 66.1106 81.8744 66.1879 81.9742C66.2822 82.0952 66.3778 82.2161 66.4692 82.3385C66.5465 82.4411 66.6197 82.5466 66.6942 82.6507C66.7828 82.773 66.8714 82.8939 66.9572 83.0191C67.0303 83.126 67.1006 83.2342 67.1737 83.3425C67.2567 83.4663 67.3411 83.59 67.4212 83.7166C67.4915 83.8263 67.5576 83.9388 67.6265 84.0499C67.7039 84.1764 67.7826 84.3016 67.8586 84.4296C67.9247 84.5421 67.9879 84.6574 68.0526 84.7713C68.1258 84.8992 68.1989 85.0272 68.2692 85.158C68.3311 85.2733 68.3915 85.3914 68.452 85.5082C68.5195 85.6389 68.5884 85.7683 68.6531 85.9005C68.7122 86.0186 68.767 86.1382 68.8233 86.2577C68.8865 86.3899 68.9498 86.5235 69.0089 86.6571C69.0623 86.778 69.1143 86.8989 69.1664 87.0213C69.224 87.1563 69.2831 87.2913 69.3379 87.4277C69.3872 87.55 69.435 87.6752 69.4828 87.7989C69.5348 87.9353 69.5883 88.0717 69.6389 88.211C69.6839 88.3361 69.7275 88.4627 69.7697 88.5892C69.8175 88.7285 69.8653 88.8663 69.9103 89.0069C69.9511 89.1335 69.989 89.2628 70.0284 89.3908C70.0706 89.5314 70.1142 89.6721 70.1536 89.8141C70.1901 89.9435 70.2239 90.0728 70.2576 90.2022C70.2844 90.3063 70.3111 90.4089 70.3378 90.513C70.2843 90.7071 70.2337 90.9011 70.1817 91.0938C70.1775 91.1107 70.1733 91.1275 70.169 91.1444C70.1072 91.3764 70.0481 91.6071 69.9904 91.8363C69.9736 91.901 69.9581 91.9657 69.9412 92.0289C69.8822 92.2652 69.8231 92.4986 69.7668 92.7292C69.7654 92.7363 69.764 92.7419 69.7626 92.7489C69.7598 92.7588 69.7584 92.7672 69.7556 92.7771H57.4411C57.4636 91.7153 57.3651 90.6382 57.1429 89.5596C57.0333 89.0266 56.5144 88.6849 55.9814 88.7932C55.4484 88.9028 55.1053 89.4232 55.215 89.9547C55.4723 91.2063 55.5398 92.4536 55.4161 93.6616C55.3879 93.9386 55.4779 94.2142 55.665 94.421C55.852 94.6277 56.1164 94.7458 56.3962 94.7458H70.5347H74.9559H88.4742C88.6078 94.7458 88.7372 94.7191 88.8567 94.6685H91.1953C91.4737 94.6685 91.7395 94.5503 91.9265 94.3436C92.1136 94.1369 92.2036 93.8613 92.1754 93.5842C91.17 83.7532 102.769 75.5055 102.885 75.4239C103.237 75.1778 103.389 74.7321 103.261 74.3214C103.133 73.9108 102.752 73.6324 102.322 73.6324C100.686 73.6324 99.0745 73.811 97.5051 74.1667C101.195 70.076 104.781 67.5461 104.823 67.5166C105.175 67.2705 105.327 66.8247 105.199 66.4141C105.067 66.0007 104.687 65.7222 104.258 65.7222ZM93.5845 66.5308C93.4326 66.9358 93.2765 67.3689 93.1148 67.8274C93.067 67.8457 93.0206 67.8667 92.9728 67.885C92.8786 67.923 92.7858 67.961 92.6929 67.9989C92.565 68.051 92.4384 68.1044 92.3118 68.1592C92.219 68.1986 92.1248 68.2394 92.032 68.2802C91.98 68.3027 91.9265 68.3252 91.8745 68.3491C92.4328 67.7149 93.0037 67.1074 93.5845 66.5308ZM55.7972 72.3372C55.7803 72.3316 55.7634 72.326 55.7465 72.3203C55.1925 70.4317 54.6356 68.8019 54.1406 67.4716C55.949 69.2772 57.645 71.3739 59.2172 73.7477C59.1637 73.721 59.1103 73.6971 59.0568 73.6703C58.9626 73.6239 58.867 73.5775 58.7714 73.5325C58.6139 73.458 58.4564 73.3835 58.2975 73.3117C58.2033 73.2696 58.1076 73.226 58.0134 73.1838C57.8419 73.1092 57.6689 73.0361 57.4959 72.9658C57.4144 72.9321 57.3328 72.8969 57.2498 72.8646C56.9939 72.7633 56.7365 72.6635 56.4778 72.5707C56.2514 72.4891 56.0236 72.4117 55.7972 72.3372ZM74.0953 92.455C74.0826 92.5577 74.0714 92.6603 74.0601 92.7644C74.0601 92.7672 74.0587 92.7714 74.0587 92.7743H71.7848C71.7975 92.725 71.8087 92.6772 71.8214 92.628C71.8734 92.4185 71.9283 92.2075 71.9831 91.9952C72.0084 91.8982 72.0323 91.8025 72.0576 91.7055C72.1378 91.3989 72.2208 91.091 72.3065 90.7788C72.5315 89.9561 72.7748 89.1138 73.0279 88.2757C73.2994 87.3757 73.5947 86.4447 73.9054 85.5096C74.1586 84.7474 74.4215 83.9866 74.6915 83.2314C75.5029 80.9646 76.3903 78.7371 77.3395 76.5827C81.5864 66.9499 86.8134 59.2605 92.9081 53.6678C91.5033 57.2032 89.4881 62.9632 87.885 70.2953C87.8793 70.3164 87.8751 70.3375 87.8709 70.3586C87.8709 70.36 87.8695 70.3614 87.8695 70.3628C87.8639 70.3867 87.8597 70.4107 87.854 70.4346C87.847 70.4683 87.84 70.5007 87.8329 70.5344C87.7598 70.5808 87.6867 70.6286 87.6136 70.6778C87.6079 70.6821 87.6023 70.6863 87.5967 70.6891C87.487 70.7608 87.3787 70.8325 87.2789 70.9014C87.2747 70.9042 87.2704 70.9071 87.2662 70.9099C87.262 70.9127 87.2592 70.9155 87.255 70.9169C87.0708 71.0407 86.9062 71.1532 86.7628 71.2558C86.7628 71.2558 86.7614 71.2558 86.7614 71.2572C86.6629 71.3247 86.5631 71.3964 86.4703 71.4639C86.3423 71.5567 86.2143 71.6496 86.0962 71.7396C85.7222 72.018 85.3537 72.3063 85.005 72.5932C84.884 72.6916 84.7645 72.7914 84.6478 72.8899C84.2104 73.2597 83.7773 73.6464 83.3568 74.0444C83.2162 74.1766 83.0784 74.3116 82.9406 74.4466C82.8633 74.5225 82.7887 74.5971 82.7128 74.6744C82.6397 74.7475 82.5665 74.8207 82.5047 74.8853C82.402 74.9894 82.3022 75.0935 82.2037 75.1975C82.1011 75.3058 82.0012 75.4127 81.9 75.5224C81.8733 75.5505 81.8479 75.5786 81.824 75.6067C81.7467 75.6897 81.6722 75.7727 81.5962 75.8571C81.5526 75.9049 81.509 75.9527 81.4668 76.0033C81.4036 76.0736 81.3403 76.1453 81.2812 76.2142L81.2672 76.2297C81.2306 76.2719 81.194 76.3141 81.1589 76.3563C81.0872 76.4378 81.0183 76.5194 80.9578 76.5925C80.8734 76.6924 80.7904 76.7922 80.7173 76.8836C80.6315 76.9863 80.5486 77.0903 80.4656 77.1944C80.4642 77.1972 80.4614 77.2 80.46 77.2028C80.4543 77.2099 80.4487 77.2183 80.4431 77.2253C80.3531 77.3392 80.2631 77.4517 80.1801 77.56C80.1014 77.6613 80.024 77.7611 79.9551 77.8553C79.8834 77.951 79.8103 78.0466 79.7456 78.1366L79.7245 78.1661C79.7217 78.1703 79.7175 78.176 79.7147 78.1802C79.6261 78.3011 79.5403 78.4207 79.4531 78.543C79.4461 78.5528 79.439 78.5613 79.4334 78.5711C79.3758 78.6513 79.3195 78.7328 79.2618 78.8172C79.2309 78.8622 79.2 78.9072 79.1676 78.955C79.1072 79.0422 79.0481 79.1294 78.989 79.218L78.9525 79.2728C78.4828 79.9788 78.0384 80.7086 77.6348 81.4413C75.7518 84.8613 74.5593 88.5667 74.0953 92.455ZM93.8236 75.4942C93.5522 75.8458 93.5493 76.3352 93.8165 76.6896C94.0837 77.0439 94.5562 77.1761 94.9683 77.0102C96.3506 76.4561 97.7822 76.0638 99.2475 75.8346C98.1759 76.7866 96.8807 78.048 95.6025 79.5597C91.9237 83.9121 90.0534 88.4289 90.149 92.6969H88.4672C88.335 92.6969 88.2042 92.7236 88.0847 92.7743H76.0401C76.0429 92.7461 76.0472 92.718 76.05 92.6899C76.4845 89.0533 77.5997 85.5883 79.3631 82.3905C79.74 81.7043 80.1548 81.0236 80.5936 80.3641L80.6315 80.3078C80.6822 80.2319 80.7328 80.156 80.7848 80.0814C80.7876 80.0772 80.7975 80.0632 80.8003 80.0589C80.8804 79.9408 80.9606 79.8241 81.0436 79.7088C81.0478 79.7017 81.0534 79.6961 81.0576 79.6891C81.1392 79.5752 81.2208 79.4613 81.3023 79.3488C81.3136 79.3347 81.3234 79.3192 81.3347 79.3038C81.3993 79.2152 81.4654 79.128 81.5372 79.031C81.6018 78.9424 81.6708 78.8552 81.7411 78.7638C81.8254 78.6541 81.9112 78.543 81.9984 78.4347C82.0083 78.4221 82.0181 78.4108 82.0265 78.3982C82.0561 78.3616 82.0856 78.3236 82.1165 78.2857C82.1573 78.235 82.1995 78.183 82.2445 78.1282C82.3148 78.041 82.3865 77.9524 82.4681 77.8567C82.5286 77.7836 82.589 77.7119 82.6523 77.6416C82.6608 77.6317 82.6692 77.6233 82.6762 77.6135C82.7015 77.5825 82.7283 77.5516 82.7536 77.5221L82.7718 77.501C82.8281 77.4363 82.8843 77.3716 82.942 77.3069C82.949 77.2999 82.9561 77.2914 82.9617 77.2844C82.9884 77.2521 83.0151 77.2211 83.0433 77.1916C83.0489 77.186 83.0545 77.1789 83.0601 77.1733C83.1333 77.0903 83.2078 77.0088 83.2837 76.9272C83.2964 76.9132 83.309 76.8991 83.3217 76.8836C83.3259 76.8794 83.3315 76.8738 83.3358 76.8696C83.4342 76.7627 83.5326 76.6572 83.6339 76.5503C83.7239 76.4561 83.8139 76.3605 83.9151 76.2578C83.9742 76.196 84.0347 76.1341 84.0965 76.0736C84.1008 76.0694 84.105 76.0652 84.1092 76.061C84.1781 75.9907 84.247 75.9217 84.3187 75.8514C84.8334 75.3452 85.3706 74.8558 85.9176 74.3917C86.0273 74.2989 86.137 74.2075 86.2495 74.1161C86.5758 73.8489 86.9175 73.5817 87.2733 73.316C87.3886 73.2302 87.5039 73.1444 87.6178 73.0628C87.6276 73.0558 87.6375 73.0488 87.6473 73.0417C87.7176 72.9897 87.7879 72.9405 87.8583 72.8913C87.8723 72.8814 87.885 72.873 87.8976 72.8632C88.0368 72.7633 88.1887 72.6592 88.3729 72.5369C88.3842 72.5299 88.394 72.5228 88.4053 72.5158C88.4911 72.4567 88.5768 72.3991 88.6626 72.3428C88.6739 72.3358 88.6837 72.3288 88.695 72.3217L88.9073 72.1825C89.0128 72.115 89.1183 72.0475 89.2251 71.9814C89.2251 71.9814 89.2265 71.9814 89.2265 71.98C89.2265 71.98 89.2265 71.98 89.2279 71.98C89.4262 71.8563 89.6259 71.7353 89.827 71.6172C91.2347 70.7875 92.7154 70.0788 94.2398 69.505C96.4842 68.6599 98.8143 68.1072 101.201 67.8541C99.2418 69.505 96.4195 72.1375 93.8236 75.4942Z" fill="#E9E9E9"/>
</svg>
