<svg width="148" height="148" viewBox="0 0 148 148" fill="none" xmlns="http://www.w3.org/2000/svg">
<circle cx="74" cy="74" r="73.5" stroke="white" stroke-dasharray="2 8"/>
<path d="M80.7129 53.7224L80.7109 53.7224C79.8897 53.7291 79.2138 53.0547 79.2138 52.2312C79.2138 51.408 79.8819 50.74 80.705 50.74H95.7457C96.5688 50.74 97.2369 51.408 97.2369 52.2312C97.2369 53.0543 96.5688 53.7224 95.7457 53.7224L80.7129 53.7224ZM95.3144 85.0563H95.3066V85.3063C95.3066 90.9592 90.707 95.5588 85.0541 95.5588H77.0235V81.6406H78.9717C80.3074 81.6406 81.3884 80.5595 81.3884 79.2239V78.3H95.3144V85.0563ZM95.9212 76.9902L95.9195 76.9904C95.8816 76.9951 95.8544 76.9995 95.8324 77.0031C95.7985 77.0085 95.7765 77.0121 95.7457 77.0121H80.7129C79.8898 77.0121 79.2217 76.344 79.2217 75.5209C79.2217 74.6977 79.8898 74.0297 80.7129 74.0297L95.7457 74.0297L95.7477 74.0296C96.5703 74.0229 97.2447 74.6909 97.2447 75.513C97.2447 76.2729 96.6657 76.9022 95.9212 76.9902ZM98.5326 71.2427C98.5326 70.0029 97.7163 68.9597 96.5944 68.6028V54.8789C97.7163 54.5221 98.5326 53.4788 98.5326 52.2391C98.5326 50.7064 97.2862 49.46 95.7535 49.46H80.7129C79.1803 49.46 77.9338 50.7064 77.9338 52.2391C77.9338 53.5602 78.8651 54.6608 80.1005 54.9437V68.5458C78.8655 68.828 77.9338 69.9215 77.9338 71.2506C77.9338 72.1111 78.3342 72.8772 78.9488 73.3857C78.3342 73.8942 77.9338 74.6603 77.9338 75.5209C77.9338 76.842 78.8651 77.9426 80.1005 78.2256V79.2318C80.1005 79.8501 79.59 80.3606 78.9717 80.3606H76.9928C76.806 79.0039 75.654 77.9575 74.2444 77.9575C73.3839 77.9575 72.6178 78.3579 72.1093 78.9725C71.6008 78.3579 70.8347 77.9575 69.9741 77.9575C68.5645 77.9575 67.4132 79.0109 67.2259 80.3606H54.9952C54.8084 79.0039 53.6564 77.9575 52.2469 77.9575C50.7142 77.9575 49.4678 79.204 49.4678 80.7366V95.7772C49.4678 97.3099 50.7142 98.5563 52.2469 98.5563C53.3984 98.5563 54.3749 97.8471 54.7972 96.8545H67.4001C67.8225 97.8471 68.7989 98.5563 69.9505 98.5563C70.8111 98.5563 71.5772 98.156 72.0857 97.5413C72.5941 98.156 73.3602 98.5563 74.2208 98.5563C75.3707 98.5563 76.3553 97.8486 76.7723 96.8545H85.0384C91.4007 96.8545 96.5787 91.6765 96.5787 85.3142V78.1686C97.7005 77.8118 98.5169 76.7685 98.5169 75.5287C98.5169 74.6679 98.1163 73.9016 97.5013 73.3931C98.1288 72.875 98.5326 72.1072 98.5326 71.2427ZM53.746 95.7694C53.746 96.5925 53.0779 97.2606 52.2547 97.2606C51.4316 97.2606 50.7635 96.5925 50.7635 95.7694V80.7288C50.7635 79.9056 51.4316 79.2375 52.2547 79.2375C53.0779 79.2375 53.746 79.9056 53.746 80.7288V95.7694ZM67.1793 95.5588H55.0338V81.6406H67.1793V95.5588ZM71.4575 95.7694C71.4575 96.5925 70.7894 97.2606 69.9663 97.2606C69.1431 97.2606 68.475 96.5925 68.475 95.7694V80.7288C68.475 79.9056 69.1431 79.2375 69.9663 79.2375C70.7894 79.2375 71.4575 79.9056 71.4575 80.7288V95.7694ZM75.7278 95.7694C75.7278 96.5925 75.0597 97.2606 74.2366 97.2606C73.4134 97.2606 72.7453 96.5925 72.7453 95.7694V80.7288C72.7453 79.9056 73.4134 79.2375 74.2366 79.2375C75.0597 79.2375 75.7278 79.9056 75.7278 80.7288V95.7694ZM95.3066 55.0181V68.4636H81.3805V55.0181H95.3066ZM95.7457 72.7339H80.7129L95.9212 69.7734C95.9214 69.7734 95.9216 69.7734 95.9219 69.7735C96.6668 69.8619 97.2447 70.4838 97.2447 71.2506C97.2447 72.0636 96.571 72.7339 95.7457 72.7339Z" fill="#E9E9E9" stroke="#E9E9E9" stroke-width="0.5"/>
</svg>
