<svg width="149" height="148" viewBox="0 0 149 148" fill="none" xmlns="http://www.w3.org/2000/svg">
<circle cx="74.9189" cy="74" r="73.5" stroke="white" stroke-dasharray="2 8"/>
<path d="M98.3877 57.125C98.8534 57.125 99.2314 56.747 99.2314 56.2812V54.5938C99.2314 52.2667 97.3398 50.375 95.0127 50.375H93.3252C92.8594 50.375 92.4814 50.753 92.4814 51.2188C92.4814 51.6845 92.8594 52.0625 93.3252 52.0625H95.0127C96.4083 52.0625 97.5439 53.1982 97.5439 54.5938V56.2812C97.5439 56.747 97.9219 57.125 98.3877 57.125Z" fill="#E9E9E9"/>
<path d="M48.6064 93.4062V91.7188C48.6064 91.253 48.9844 90.875 49.4502 90.875H84.8877C85.3534 90.875 85.7314 91.253 85.7314 91.7188V93.4062C85.7314 94.8018 86.8671 95.9375 88.2627 95.9375C88.7284 95.9375 89.1064 96.3155 89.1064 96.7812C89.1064 97.247 88.7284 97.625 88.2627 97.625H52.8252C50.4981 97.625 48.6064 95.7333 48.6064 93.4062ZM84.0439 93.4062V92.5625H50.2939V93.4062C50.2939 94.8018 51.4296 95.9375 52.8252 95.9375H84.8894C84.3595 95.2321 84.0439 94.3563 84.0439 93.4062Z" fill="#E9E9E9"/>
<path d="M84.0622 77.3916C83.7332 77.7224 83.7332 78.2556 84.0622 78.5864L86.4484 80.9725C86.7774 81.3016 87.3124 81.3016 87.6414 80.9725C87.9705 80.6434 87.9705 80.1085 87.6414 79.7794L85.2553 77.3916C84.9245 77.0609 84.3913 77.0609 84.0622 77.3916Z" fill="#E9E9E9"/>
<path d="M75.6064 82.4375C68.1629 82.4375 62.1064 76.3811 62.1064 68.9375C62.1064 61.4939 68.1629 55.4375 75.6064 55.4375C78.4077 55.4375 81.0942 56.288 83.3774 57.8979C83.7588 58.1645 83.8499 58.6927 83.5816 59.0724C83.3133 59.4537 82.7851 59.5466 82.4054 59.2749C80.4091 57.8675 78.0584 57.125 75.6064 57.125C69.0927 57.125 63.7939 62.4254 63.7939 68.9375C63.7939 75.4496 69.0927 80.75 75.6064 80.75C82.1202 80.75 87.4189 75.4496 87.4189 68.9375C87.4189 67.7242 87.2367 66.5294 86.8756 65.3853C86.7355 64.9398 86.9819 64.4656 87.4274 64.3272C87.8729 64.1906 88.3454 64.4336 88.4854 64.8774C88.8972 66.1869 89.1064 67.5538 89.1064 68.9375C89.1064 76.3811 83.05 82.4375 75.6064 82.4375Z" fill="#E9E9E9"/>
<path d="M89.1064 80.75C89.5384 80.75 89.9704 80.9154 90.2995 81.2444L97.0495 87.9944C97.7093 88.6542 97.7093 89.7208 97.0495 90.3806C96.7204 90.7096 96.2884 90.875 95.8564 90.875C95.4244 90.875 94.9924 90.7096 94.6634 90.3806L87.9134 83.6306C87.2536 82.9708 87.2536 81.9042 87.9134 81.2444C88.2424 80.9154 88.6744 80.75 89.1064 80.75ZM89.1064 79.0625C88.2053 79.0625 87.3582 79.4135 86.7203 80.0514C86.0824 80.6893 85.7314 81.5364 85.7314 82.4375C85.7314 83.3386 86.0824 84.1857 86.7203 84.8236L93.4703 91.5736C94.1082 92.2115 94.9553 92.5625 95.8564 92.5625C96.7576 92.5625 97.6047 92.2115 98.2426 91.5736C98.8804 90.9357 99.2314 90.0886 99.2314 89.1875C99.2314 88.2864 98.8804 87.4393 98.2426 86.8014L91.4926 80.0514C90.8547 79.4135 90.0076 79.0625 89.1064 79.0625Z" fill="#E9E9E9"/>
<path d="M74.7631 73.9997C74.7563 73.9997 74.7496 73.9997 74.7428 73.9997C74.4981 73.9929 74.2703 73.8833 74.1134 73.6959L69.8946 68.6334C69.5976 68.274 69.6466 67.7424 70.0026 67.4438C70.3621 67.1468 70.8919 67.1957 71.1923 67.5518L74.7917 71.8734L86.7966 59.0856C87.1139 58.7413 87.6471 58.7211 87.988 59.0333C88.3306 59.3488 88.3542 59.8821 88.0386 60.2263L75.3841 73.7263C75.2237 73.9001 75.001 73.9997 74.7631 73.9997Z" fill="#E9E9E9"/>
<path d="M95.0127 52.0625C95.4784 52.0625 95.8564 51.6845 95.8564 51.2188C95.8564 50.753 95.4784 50.375 95.0127 50.375H61.2627C58.9356 50.375 57.0439 52.2667 57.0439 54.5938V88.3438C57.0439 88.8095 57.4219 89.1875 57.8877 89.1875C58.3534 89.1875 58.7314 88.8095 58.7314 88.3438V54.5938C58.7314 53.1982 59.8671 52.0625 61.2627 52.0625H91.6394C91.1095 52.7679 90.7939 53.6454 90.7939 54.5938V76.5312C90.7939 76.997 91.1719 77.375 91.6377 77.375C92.1034 77.375 92.4814 76.997 92.4814 76.5312V54.5938C92.4814 53.1982 93.6171 52.0625 95.0127 52.0625Z" fill="#E9E9E9"/>
<path d="M88.2627 95.9375H85.3096V97.625H88.2627C90.5898 97.625 92.4814 95.7333 92.4814 93.4062C92.4814 92.9405 92.1034 92.5625 91.6377 92.5625C91.1719 92.5625 90.7939 92.9405 90.7939 93.4062C90.7939 94.8018 89.6583 95.9375 88.2627 95.9375Z" fill="#E9E9E9"/>
</svg>
