<svg width="148" height="148" viewBox="0 0 148 148" fill="none" xmlns="http://www.w3.org/2000/svg">
<circle cx="74" cy="74" r="73.5" stroke="white" stroke-dasharray="2 8"/>
<path d="M85.8116 50.0688C81.6178 46.6127 76.097 45.2374 70.6676 46.2945C63.3582 47.7174 57.4877 53.8876 56.3916 61.2997C55.4977 67.3482 57.6464 73.3887 62.1398 77.4589C64.1644 79.2926 65.3859 81.9338 65.5799 84.8969C65.5836 84.9506 65.5941 85.0025 65.6058 85.0538V94.3453C65.6058 94.8568 66.0204 95.272 66.5325 95.272H67.4562C67.8324 97.9651 69.8119 100.027 72.1961 100.027H76.4034C78.7876 100.027 80.7665 97.9651 81.1427 95.272H82.0664C82.5779 95.272 82.9931 94.8568 82.9931 94.3453V84.9055C82.9931 84.9037 82.9937 84.9018 82.9937 84.8994C82.9937 82.1426 84.2454 79.4804 86.519 77.4033C90.2642 73.9818 92.4117 69.1152 92.4117 64.0521C92.4124 58.6226 90.0066 53.5256 85.8116 50.0688ZM71.0228 67.6571H69.5988C68.8135 67.6571 68.1747 67.0183 68.1747 66.233C68.1747 65.4477 68.8135 64.8089 69.5988 64.8089C70.384 64.8089 71.0228 65.4477 71.0228 66.233V67.6571ZM77.5773 66.233C77.5773 65.4477 78.2161 64.8089 79.002 64.8089C79.7872 64.8089 80.426 65.4477 80.426 66.233C80.426 67.0183 79.7872 67.6571 79.002 67.6571H77.5791L77.5773 66.233ZM77.0194 85.76H81.1402V93.4185H80.292C80.2901 93.4185 80.2883 93.4179 80.2858 93.4179C80.2833 93.4179 80.2821 93.4185 80.2796 93.4185H68.3199C68.318 93.4185 68.3162 93.4179 68.3137 93.4179C68.3112 93.4179 68.31 93.4185 68.3075 93.4185H67.4599V85.76H76.3355M72.8763 83.9065V69.5106H75.7288L75.7498 83.9065H72.8763ZM76.4034 98.1739H72.1961C70.8134 98.1739 69.6525 96.9358 69.3313 95.272H79.2676C78.947 96.9358 77.7861 98.1739 76.4034 98.1739ZM85.2691 76.0354C82.8769 78.2207 81.4609 80.986 81.1959 83.9065H77.6026L77.5822 69.5106H79.002C80.8091 69.5106 82.2795 68.0401 82.2795 66.233C82.2795 64.4259 80.8091 62.9554 79.002 62.9554C77.1942 62.9554 75.7238 64.4259 75.7238 66.2342L75.7257 67.6571H72.8763V66.233C72.8763 64.4259 71.4059 62.9554 69.5988 62.9554C67.7916 62.9554 66.3212 64.4259 66.3212 66.233C66.3212 68.0401 67.7916 69.5106 69.5988 69.5106H71.0228V83.9065H67.3332C66.9403 80.8143 65.5638 78.0588 63.3835 76.0848C59.3504 72.431 57.4216 67.0053 58.2247 61.5703C59.2077 54.9225 64.4696 49.3892 71.021 48.1134C75.9067 47.1632 80.8678 48.3964 84.6315 51.4991C88.3978 54.6024 90.5577 59.1781 90.5577 64.0527C90.5589 68.5962 88.6307 72.9642 85.2691 76.0354Z" fill="#E9E9E9"/>
</svg>
