<svg width="148" height="148" viewBox="0 0 148 148" fill="none" xmlns="http://www.w3.org/2000/svg">
<circle cx="74" cy="74" r="73.5" stroke="white" stroke-dasharray="2 8"/>
<path d="M74.0002 85.0996C70.3002 85.0996 61.7002 85.3996 61.7002 88.0996C61.7002 90.7996 70.3002 91.0996 74.0002 91.0996C77.7002 91.0996 86.3002 90.7996 86.3002 88.0996C86.3002 85.3996 77.7002 85.0996 74.0002 85.0996ZM74.0002 89.1996C69.0002 89.1996 65.7002 88.5996 64.3002 88.1996C65.7002 87.6996 69.0002 87.1996 74.0002 87.1996C79.0002 87.1996 82.3002 87.7996 83.7002 88.1996C82.3002 88.6996 79.0002 89.1996 74.0002 89.1996Z" fill="#E9E9E9"/>
<path d="M74 77.4004C60 77.4004 49 82.1004 49 88.2004C49 94.3004 60 99.0004 74 99.0004C88 99.0004 99 94.3004 99 88.2004C99 82.1004 88 77.4004 74 77.4004ZM74 97.0004C60.2 97.0004 51 92.4004 51 88.2004C51 84.0004 60.2 79.4004 74 79.4004C87.8 79.4004 97 84.0004 97 88.2004C97 92.4004 87.8 97.0004 74 97.0004Z" fill="#E9E9E9"/>
<path d="M74.0004 81.2998C65.0004 81.2998 55.4004 83.6998 55.4004 88.1998C55.4004 92.6998 65.0004 95.0998 74.0004 95.0998C83.0004 95.0998 92.6004 92.6998 92.6004 88.1998C92.6004 83.6998 83.0004 81.2998 74.0004 81.2998ZM74.0004 93.0998C63.7004 93.0998 57.4004 90.1998 57.4004 88.1998C57.4004 86.0998 63.7004 83.2998 74.0004 83.2998C84.3004 83.2998 90.6004 86.1998 90.6004 88.1998C90.6004 90.1998 84.3004 93.0998 74.0004 93.0998Z" fill="#E9E9E9"/>
<path d="M75.1 74.3C80.1 74.3 84.2 70.2 84.2 65.3C84.2 60.7 76.8 50.6 75.9 49.5C75.7 49.1 75.4 49 75.1 49C74.8 49 74.5 49.1 74.3 49.4C73.4 50.5 66 60.6 66 65.2C66 70.2 70.1 74.3 75.1 74.3ZM75.1 51.7C77.6 55.2 82.2 62.2 82.2 65.2C82.2 69.1 79 72.2 75.1 72.2C71.2 72.2 68.1 69 68.1 65.2C68 62.2 72.6 55.2 75.1 51.7Z" fill="#E9E9E9"/>
<path d="M75.0997 69.2998C75.6997 69.2998 76.0997 68.8998 76.0997 68.2998C76.0997 67.6998 75.6997 67.2998 75.0997 67.2998C73.9997 67.2998 73.0997 66.3998 73.0997 65.2998C73.0997 64.6998 72.6997 64.2998 72.0997 64.2998C71.4997 64.2998 71.0997 64.6998 71.0997 65.2998C70.9997 67.3998 72.7997 69.2998 75.0997 69.2998Z" fill="#E9E9E9"/>
</svg>
