<svg width="149" height="148" viewBox="0 0 149 148" fill="none" xmlns="http://www.w3.org/2000/svg">
<circle cx="74.9189" cy="74" r="73.5" stroke="white" stroke-dasharray="2 8"/>
<path d="M68.7282 55.4706C68.5806 55.4706 68.4306 55.4308 68.2958 55.3464C66.3517 54.137 64.3548 53.2862 62.3638 52.8163C61.9231 52.712 61.6501 52.2702 61.7532 51.8296C61.8575 51.389 62.2993 51.1159 62.7399 51.219C64.9044 51.73 67.0653 52.6499 69.1618 53.953C69.5462 54.1921 69.6645 54.6983 69.4255 55.0827C69.2708 55.3323 69.0024 55.4706 68.7282 55.4706Z" fill="#E9E9E9"/>
<path d="M57.085 75.3939C57.0311 75.3939 56.9771 75.388 56.9244 75.3775C56.8729 75.3669 56.8213 75.3517 56.7709 75.3306C56.7217 75.3107 56.6736 75.2849 56.6291 75.2556C56.5846 75.2251 56.5424 75.1912 56.5049 75.1537C56.3525 75.0013 56.2646 74.7892 56.2646 74.5736C56.2646 74.5197 56.2705 74.4658 56.2811 74.413C56.2916 74.3615 56.3068 74.3087 56.3279 74.2595C56.3479 74.2103 56.3736 74.1622 56.4029 74.1177C56.4322 74.0732 56.4674 74.031 56.5049 73.9935C56.5424 73.956 56.5846 73.9208 56.6291 73.8915C56.6736 73.8622 56.7217 73.8365 56.7709 73.8165C56.8213 73.7955 56.8729 73.7802 56.9244 73.7697C57.1916 73.7158 57.4752 73.8025 57.665 73.9935C57.7025 74.031 57.7365 74.0732 57.767 74.1177C57.7963 74.1622 57.8221 74.2103 57.842 74.2595C57.8631 74.3087 57.8783 74.3615 57.8889 74.413C57.8994 74.4658 57.9053 74.5197 57.9053 74.5736C57.9053 74.7892 57.8174 75.0013 57.665 75.1537C57.5127 75.306 57.3006 75.3939 57.085 75.3939Z" fill="#E9E9E9"/>
<path d="M59.7214 72.7577C59.5116 72.7577 59.3019 72.678 59.1413 72.5175C58.8214 72.1976 58.8214 71.6772 59.1413 71.3573L75.3261 55.1726C75.646 54.8526 76.1663 54.8526 76.4862 55.1726C76.8062 55.4925 76.8062 56.0128 76.4862 56.3327L60.3015 72.5175C60.1421 72.6769 59.9312 72.7577 59.7214 72.7577Z" fill="#E9E9E9"/>
<path d="M53.3127 91.6197H49.1865C48.733 91.6197 48.3662 91.2529 48.3662 90.7994V86.665C48.3662 86.2115 48.733 85.8447 49.1865 85.8447H55.6518C56.0197 85.8447 56.3432 86.0908 56.4416 86.4459C56.54 86.801 56.39 87.1783 56.0748 87.3682C54.8584 88.1006 54.133 89.3826 54.133 90.7994C54.133 91.2529 53.7662 91.6197 53.3127 91.6197ZM50.0068 89.9791H52.5533C52.6881 89.0744 53.042 88.2189 53.574 87.4854H50.0068V89.9791Z" fill="#E9E9E9"/>
<path d="M102.517 91.6195H99.5169C99.0634 91.6195 98.6966 91.2527 98.6966 90.7992C98.6966 88.5926 96.9013 86.7961 94.6946 86.7961C92.488 86.7961 90.6915 88.5914 90.6915 90.7992C90.6915 91.2527 90.3247 91.6195 89.8712 91.6195H62.9591C62.5056 91.6195 62.1388 91.2527 62.1388 90.7992C62.1388 89.3824 61.4134 88.0992 60.197 87.368C59.8818 87.1781 59.7306 86.8008 59.8302 86.4457C59.9286 86.0906 60.2521 85.8445 60.62 85.8445H86.0521V77.9672C86.0521 77.5137 86.4189 77.1469 86.8724 77.1469C87.3259 77.1469 87.6927 77.5137 87.6927 77.9672V86.6648C87.6927 87.1184 87.3259 87.4852 86.8724 87.4852H62.6989C63.2298 88.2188 63.5837 89.0742 63.7196 89.9789H89.113C89.5114 87.2543 91.8634 85.1555 94.697 85.1555C97.5294 85.1555 99.8814 87.2543 100.28 89.9789H101.698V75.2637L97.1087 68.4375H87.695V71.4445C87.695 71.898 87.3282 72.2648 86.8747 72.2648C86.4212 72.2648 86.0544 71.898 86.0544 71.4445V67.6172C86.0544 67.1637 86.4212 66.7969 86.8747 66.7969H97.5458C97.8189 66.7969 98.0743 66.9328 98.2267 67.159L103.199 74.5559C103.29 74.6906 103.338 74.85 103.338 75.0141V90.8004C103.337 91.2527 102.97 91.6195 102.517 91.6195Z" fill="#E9E9E9"/>
<path d="M86.873 75.3762C86.8191 75.3762 86.7652 75.3715 86.7125 75.361C86.6598 75.3504 86.6082 75.334 86.559 75.3141C86.5098 75.293 86.4617 75.2684 86.4172 75.2379C86.3727 75.2086 86.3305 75.1746 86.293 75.136C86.2543 75.0985 86.2203 75.0563 86.191 75.0117C86.1605 74.9672 86.1359 74.9192 86.1148 74.8699C86.0949 74.8207 86.0785 74.7692 86.068 74.7164C86.0574 74.6637 86.0527 74.6098 86.0527 74.5559C86.0527 74.5032 86.0574 74.4492 86.068 74.3965C86.0785 74.3438 86.0949 74.2922 86.1148 74.243C86.1359 74.1926 86.1605 74.1457 86.191 74.1012C86.2203 74.0555 86.2543 74.0145 86.293 73.9758C86.3305 73.9383 86.3727 73.9043 86.4172 73.8739C86.4617 73.8446 86.5098 73.8188 86.559 73.7989C86.6082 73.7778 86.6598 73.7625 86.7125 73.752C86.9785 73.6981 87.2621 73.786 87.4531 73.9758C87.6055 74.1293 87.6934 74.3403 87.6934 74.5559C87.6934 74.7715 87.6055 74.9836 87.4531 75.136C87.4145 75.1746 87.3734 75.2086 87.3277 75.2379C87.2832 75.2684 87.2363 75.293 87.1859 75.3141C87.1367 75.334 87.0852 75.3504 87.0336 75.361C86.9797 75.3715 86.9258 75.3762 86.873 75.3762Z" fill="#E9E9E9"/>
<path d="M98.5406 78.9275H90.8496C90.3961 78.9275 90.0293 78.5607 90.0293 78.1072V71.5928C90.0293 71.1393 90.3961 70.7725 90.8496 70.7725H95.427C95.7 70.7725 95.9555 70.9084 96.1078 71.1357L99.2215 75.7682C99.3129 75.9041 99.3609 76.0623 99.3609 76.2264V78.1084C99.3609 78.5596 98.993 78.9275 98.5406 78.9275ZM91.6699 77.2869H97.7203V76.4748L94.9898 72.4119H91.6711V77.2869H91.6699Z" fill="#E9E9E9"/>
<path d="M58.1369 96.4428C55.0256 96.4428 52.4932 93.9115 52.4932 90.799C52.4932 88.8314 53.542 86.9775 55.2295 85.9615C56.1049 85.4342 57.1104 85.1553 58.1369 85.1553C59.1635 85.1553 60.1689 85.4342 61.0443 85.9615C62.7318 86.9775 63.7807 88.8303 63.7807 90.7979C63.7795 93.9104 61.2482 96.4428 58.1369 96.4428ZM58.1369 86.7959C57.4092 86.7959 56.6967 86.9928 56.0768 87.3666C54.8604 88.099 54.135 89.3811 54.135 90.7979C54.135 93.0045 55.9303 94.801 58.1381 94.801C60.3459 94.801 62.1412 93.0057 62.1412 90.7979C62.1412 89.3811 61.4158 88.0979 60.1994 87.3666C59.5771 86.9939 58.8646 86.7959 58.1369 86.7959Z" fill="#E9E9E9"/>
<path d="M58.1363 92.9006C56.9773 92.9006 56.0352 91.9572 56.0352 90.7994C56.0352 90.067 56.4254 89.3768 57.0535 88.9982C57.3793 88.8014 57.7543 88.6982 58.1363 88.6982C58.5184 88.6982 58.8934 88.8025 59.2203 88.9994C59.8484 89.3768 60.2387 90.067 60.2387 90.8006C60.2375 91.9584 59.2941 92.9006 58.1363 92.9006ZM58.1363 90.3389C58.0508 90.3389 57.9723 90.3611 57.8996 90.4045C57.759 90.4889 57.6746 90.6377 57.6746 90.8006C57.6746 91.0549 57.8809 91.2611 58.1352 91.2611C58.3895 91.2611 58.5957 91.0549 58.5957 90.8006C58.5957 90.6377 58.5125 90.49 58.3719 90.4057C58.3004 90.36 58.2207 90.3389 58.1363 90.3389Z" fill="#E9E9E9"/>
<path d="M94.6939 92.9006C93.535 92.9006 92.5928 91.9572 92.5928 90.7994C92.5928 90.067 92.983 89.3768 93.6111 88.9982C93.9369 88.8014 94.3119 88.6982 94.6939 88.6982C95.076 88.6982 95.451 88.8025 95.7779 88.9994C96.4061 89.3768 96.7963 90.067 96.7963 90.8006C96.7963 91.9584 95.8529 92.9006 94.6939 92.9006ZM94.6939 90.3389C94.6084 90.3389 94.5299 90.3611 94.4572 90.4045C94.3166 90.4889 94.2322 90.6377 94.2322 90.8006C94.2322 91.0549 94.4385 91.2611 94.6928 91.2611C94.9471 91.2611 95.1533 91.0549 95.1533 90.8006C95.1533 90.6377 95.0701 90.49 94.9295 90.4057C94.8592 90.36 94.7795 90.3389 94.6939 90.3389Z" fill="#E9E9E9"/>
<path d="M94.6955 96.4428C91.5842 96.4428 89.0518 93.9115 89.0518 90.799C89.0518 87.6865 91.583 85.1553 94.6955 85.1553C97.8068 85.1553 100.338 87.6865 100.338 90.799C100.338 93.9115 97.8068 96.4428 94.6955 96.4428ZM94.6955 86.7959C92.4889 86.7959 90.6924 88.5912 90.6924 90.799C90.6924 93.0068 92.4877 94.8021 94.6955 94.8021C96.9021 94.8021 98.6975 93.0068 98.6975 90.799C98.6975 88.5912 96.9021 86.7959 94.6955 86.7959Z" fill="#E9E9E9"/>
<path d="M51.3894 87.0444C51.1796 87.0444 50.9698 86.9647 50.8093 86.8042C50.4894 86.4843 50.4894 85.964 50.8093 85.644L57.1362 79.3171C57.4562 78.9972 57.9765 78.9972 58.2964 79.3171C58.6163 79.637 58.6163 80.1573 58.2964 80.4772L51.9694 86.8042C51.8101 86.9647 51.5991 87.0444 51.3894 87.0444Z" fill="#E9E9E9"/>
<path d="M86.9038 87.0444C86.694 87.0444 86.4843 86.9647 86.3237 86.8042L80.2604 80.7409C79.9405 80.421 79.9405 79.9007 80.2604 79.5808C80.5804 79.2608 81.1007 79.2608 81.4206 79.5808L87.4839 85.644C87.8038 85.964 87.8038 86.4843 87.4839 86.8042C87.3233 86.9647 87.1136 87.0444 86.9038 87.0444Z" fill="#E9E9E9"/>
<path d="M68.0554 85.1554C67.7308 85.1554 67.4061 85.119 67.0862 85.044C62.4901 83.9729 57.8835 81.3081 54.1171 77.5417C50.3495 73.7741 47.6858 69.1686 46.6147 64.5725C46.2749 63.1147 46.7296 61.5444 47.8007 60.4733L59.4186 48.8554C60.4897 47.7843 62.06 47.3296 63.5179 47.6694C68.114 48.7405 72.7206 51.4054 76.487 55.1718C80.2534 58.9382 82.9183 63.5448 83.9893 68.1409C84.3292 69.5987 83.8745 71.169 82.8034 72.2401L71.1854 83.8581C70.3499 84.6948 69.2085 85.1554 68.0554 85.1554ZM62.5429 49.1987C61.8198 49.1987 61.1038 49.4882 60.5776 50.0155L48.9597 61.6335C48.2858 62.3073 47.9999 63.2905 48.212 64.1999C49.2151 68.5018 51.7241 72.8284 55.2772 76.3815C58.8304 79.9347 63.1569 82.4436 67.4589 83.4468C68.3683 83.6589 69.3526 83.3729 70.0265 82.6991L81.6444 71.0811C82.3183 70.4073 82.6042 69.4241 82.3921 68.5147C81.389 64.2128 78.88 59.8862 75.3268 56.3331C71.7737 52.78 67.4472 50.271 63.1452 49.2679C62.946 49.2222 62.7433 49.1987 62.5429 49.1987Z" fill="#E9E9E9"/>
</svg>
