<svg width="149" height="148" viewBox="0 0 149 148" fill="none" xmlns="http://www.w3.org/2000/svg">
<circle cx="74.9189" cy="74" r="73.5" stroke="white" stroke-dasharray="2 8"/>
<path d="M81.7787 66H76.6387C76.3735 66 76.1191 66.1054 75.9316 66.2929C75.744 66.4804 75.6387 66.7348 75.6387 67C75.6387 67.2652 75.744 67.5196 75.9316 67.7071C76.1191 67.8946 76.3735 68 76.6387 68H81.7787C82.0439 68 82.2982 67.8946 82.4858 67.7071C82.6733 67.5196 82.7787 67.2652 82.7787 67C82.7787 66.7348 82.6733 66.4804 82.4858 66.2929C82.2982 66.1054 82.0439 66 81.7787 66Z" fill="#E9E9E9"/>
<path d="M81.7789 71.5H78.3389C78.0737 71.5 77.8193 71.6054 77.6318 71.7929C77.4442 71.9804 77.3389 72.2348 77.3389 72.5C77.3389 72.7652 77.4442 73.0196 77.6318 73.2071C77.8193 73.3946 78.0737 73.5 78.3389 73.5H81.7789C82.0441 73.5 82.2984 73.3946 82.486 73.2071C82.6735 73.0196 82.7789 72.7652 82.7789 72.5C82.7789 72.2348 82.6735 71.9804 82.486 71.7929C82.2984 71.6054 82.0441 71.5 81.7789 71.5Z" fill="#E9E9E9"/>
<path d="M56.0586 62.5H62.9186C63.1838 62.5 63.4382 62.3946 63.6257 62.2071C63.8132 62.0196 63.9186 61.7652 63.9186 61.5C63.9186 61.2348 63.8132 60.9804 63.6257 60.7929C63.4382 60.6054 63.1838 60.5 62.9186 60.5H56.0586C55.7934 60.5 55.539 60.6054 55.3515 60.7929C55.1639 60.9804 55.0586 61.2348 55.0586 61.5C55.0586 61.7652 55.1639 62.0196 55.3515 62.2071C55.539 62.3946 55.7934 62.5 56.0586 62.5Z" fill="#E9E9E9"/>
<path d="M56.0586 68H71.4986C71.7638 68 72.0182 67.8946 72.2057 67.7071C72.3932 67.5196 72.4986 67.2652 72.4986 67C72.4986 66.7348 72.3932 66.4804 72.2057 66.2929C72.0182 66.1054 71.7638 66 71.4986 66H56.0586C55.7934 66 55.539 66.1054 55.3515 66.2929C55.1639 66.4804 55.0586 66.7348 55.0586 67C55.0586 67.2652 55.1639 67.5196 55.3515 67.7071C55.539 67.8946 55.7934 68 56.0586 68Z" fill="#E9E9E9"/>
<path d="M74.9186 71.5H56.0586C55.7934 71.5 55.539 71.6054 55.3515 71.7929C55.1639 71.9804 55.0586 72.2348 55.0586 72.5C55.0586 72.7652 55.1639 73.0196 55.3515 73.2071C55.539 73.3946 55.7934 73.5 56.0586 73.5H74.9186C75.1838 73.5 75.4382 73.3946 75.6257 73.2071C75.8132 73.0196 75.9186 72.7652 75.9186 72.5C75.9186 72.2348 75.8132 71.9804 75.6257 71.7929C75.4382 71.6054 75.1838 71.5 74.9186 71.5Z" fill="#E9E9E9"/>
<path d="M81.7789 60.5H66.3389C66.0737 60.5 65.8193 60.6054 65.6318 60.7929C65.4442 60.9804 65.3389 61.2348 65.3389 61.5C65.3389 61.7652 65.4442 62.0196 65.6318 62.2071C65.8193 62.3946 66.0737 62.5 66.3389 62.5H81.7789C82.0441 62.5 82.2984 62.3946 82.486 62.2071C82.6735 62.0196 82.7789 61.7652 82.7789 61.5C82.7789 61.2348 82.6735 60.9804 82.486 60.7929C82.2984 60.6054 82.0441 60.5 81.7789 60.5Z" fill="#E9E9E9"/>
<path d="M98.9189 62.34H87.9189V56C87.9189 55.7348 87.8136 55.4804 87.6261 55.2929C87.4385 55.1054 87.1842 55 86.9189 55H50.9189C50.6553 55.0051 50.4039 55.1121 50.2175 55.2986C50.0311 55.485 49.9241 55.7364 49.9189 56V78C49.9189 78.2652 50.0243 78.5196 50.2118 78.7071C50.3994 78.8946 50.6537 79 50.9189 79H56.4789L53.3789 90.76C53.3195 90.9763 53.3345 91.2064 53.4215 91.4131C53.5086 91.6199 53.6627 91.7914 53.8589 91.9C54.0072 91.9773 54.1717 92.0184 54.3389 92.02C54.4774 92.0186 54.6141 91.9896 54.7412 91.9346C54.8683 91.8797 54.9831 91.7999 55.0789 91.7L65.3389 80.56V87.16C65.3389 87.4252 65.4443 87.6796 65.6318 87.8671C65.8194 88.0546 66.0737 88.16 66.3389 88.16H81.2989L91.2989 100.62C91.393 100.737 91.5117 100.831 91.6465 100.897C91.7813 100.963 91.929 100.998 92.0789 101C92.2374 100.998 92.3939 100.964 92.5389 100.9C92.7457 100.797 92.9093 100.624 93.0008 100.411C93.0923 100.199 93.1058 99.9613 93.0389 99.74L89.9589 88.16H98.9189C99.1842 88.16 99.4385 88.0546 99.6261 87.8671C99.8136 87.6796 99.9189 87.4252 99.9189 87.16V63.34C99.9189 63.0748 99.8136 62.8204 99.6261 62.6329C99.4385 62.4454 99.1842 62.34 98.9189 62.34ZM65.9589 77.08C65.8579 77.1351 65.7638 77.2022 65.6789 77.28L56.3989 87.28L58.7989 78.16C58.8431 78.012 58.8517 77.8557 58.8239 77.7038C58.7962 77.5519 58.733 77.4087 58.6394 77.2859C58.5458 77.163 58.4245 77.064 58.2854 76.997C58.1463 76.9299 57.9933 76.8967 57.8389 76.9H51.9189V57H85.9189V77H66.3389C66.2087 77.0051 66.0802 77.0322 65.9589 77.08ZM97.9589 86.16H88.6389C88.4842 86.163 88.3321 86.2004 88.1937 86.2696C88.0554 86.3388 87.9341 86.438 87.8389 86.56C87.7467 86.6809 87.6827 86.8208 87.6516 86.9696C87.6205 87.1184 87.623 87.2723 87.6589 87.42L89.8589 95.66L82.5589 86.54C82.4649 86.4232 82.3462 86.3286 82.2114 86.2629C82.0765 86.1973 81.9289 86.1621 81.7789 86.16H67.3389V79H86.9189C87.1842 79 87.4385 78.8946 87.6261 78.7071C87.8136 78.5196 87.9189 78.2652 87.9189 78V64.34H97.9189L97.9589 86.16Z" fill="#E9E9E9"/>
</svg>
