<svg width="149" height="148" viewBox="0 0 149 148" fill="none" xmlns="http://www.w3.org/2000/svg">
<circle cx="74.9189" cy="74" r="73.5" stroke="white" stroke-dasharray="2 8"/>
<path d="M99.9931 74.8942H75.8281C75.3444 74.8942 74.9531 74.503 74.9531 74.0192V60.5705C74.9531 60.3317 75.0506 60.1042 75.2231 59.9392L82.7544 52.7242C82.9169 52.568 83.1344 52.4805 83.3594 52.4805H99.9931C100.477 52.4805 100.868 52.8717 100.868 53.3555V57.6517C100.868 58.1355 100.477 58.5267 99.9931 58.5267C99.5094 58.5267 99.1181 58.1355 99.1181 57.6517V54.2292H83.7106L76.7031 60.943V73.143H99.1181V62.9317C99.1181 62.448 99.5094 62.0567 99.9931 62.0567C100.477 62.0567 100.868 62.448 100.868 62.9317V74.018C100.868 74.503 100.477 74.8942 99.9931 74.8942Z" fill="#E9E9E9"/>
<path d="M99.9932 61.1664C99.9369 61.1664 99.8794 61.1614 99.8219 61.1501C99.7669 61.1389 99.7119 61.1214 99.6582 61.1001C99.6057 61.0776 99.5557 61.0514 99.5082 61.0189C99.4594 60.9876 99.4144 60.9514 99.3744 60.9101C99.3344 60.8701 99.2982 60.8251 99.2657 60.7776C99.2344 60.7301 99.2069 60.6789 99.1857 60.6264C99.1632 60.5739 99.1469 60.5189 99.1357 60.4626C99.1244 60.4064 99.1182 60.3489 99.1182 60.2914C99.1182 60.2351 99.1244 60.1776 99.1357 60.1214C99.1469 60.0651 99.1632 60.0101 99.1857 59.9576C99.2069 59.9039 99.2344 59.8539 99.2657 59.8064C99.2982 59.7589 99.3344 59.7139 99.3744 59.6726C99.4144 59.6326 99.4594 59.5964 99.5082 59.5639C99.5557 59.5326 99.6057 59.5064 99.6582 59.4839C99.7119 59.4626 99.7669 59.4451 99.8219 59.4339C99.9357 59.4114 100.052 59.4114 100.164 59.4339C100.221 59.4451 100.276 59.4626 100.328 59.4839C100.381 59.5064 100.432 59.5326 100.479 59.5639C100.527 59.5964 100.572 59.6326 100.612 59.6726C100.652 59.7139 100.689 59.7589 100.721 59.8064C100.752 59.8539 100.779 59.9039 100.801 59.9576C100.823 60.0101 100.841 60.0651 100.852 60.1214C100.863 60.1776 100.868 60.2351 100.868 60.2914C100.868 60.3489 100.863 60.4064 100.852 60.4626C100.841 60.5189 100.823 60.5739 100.801 60.6264C100.779 60.6789 100.752 60.7301 100.721 60.7776C100.689 60.8251 100.652 60.8701 100.612 60.9101C100.572 60.9514 100.527 60.9876 100.479 61.0189C100.432 61.0514 100.381 61.0776 100.328 61.1001C100.276 61.1214 100.221 61.1389 100.164 61.1501C100.108 61.1614 100.051 61.1664 99.9932 61.1664Z" fill="#E9E9E9"/>
<path d="M94.4493 70.5259H81.373C80.8893 70.5259 80.498 70.1347 80.498 69.6509V62.9359C80.498 62.6972 80.5955 62.4697 80.768 62.3047L84.9818 58.2672C85.1443 58.1109 85.3618 58.0234 85.5868 58.0234H94.4493C94.933 58.0234 95.3243 58.4147 95.3243 58.8984V69.6509C95.3243 70.1347 94.933 70.5259 94.4493 70.5259ZM82.248 68.7759H93.5743V59.7734H85.938L82.2468 63.3097V68.7759H82.248Z" fill="#E9E9E9"/>
<path d="M75.3125 95.5215C75.0825 95.5215 74.8563 95.4277 74.6938 95.2652C74.6538 95.224 74.6175 95.1802 74.585 95.1315C74.5537 95.084 74.5262 95.034 74.505 94.9802C74.4825 94.9277 74.4662 94.8727 74.455 94.8165C74.4437 94.7602 74.4375 94.7027 74.4375 94.6465C74.4375 94.589 74.4437 94.5315 74.455 94.4752C74.4662 94.419 74.4825 94.364 74.505 94.3115C74.5262 94.259 74.5537 94.2077 74.585 94.1602C74.6175 94.1127 74.6538 94.0677 74.6938 94.0277C74.8975 93.824 75.1987 93.7315 75.4837 93.7877C75.5387 93.799 75.5937 93.8165 75.6475 93.8377C75.7 93.8602 75.7513 93.8865 75.7988 93.919C75.8463 93.9502 75.8913 93.9865 75.9313 94.0277C75.9713 94.0677 76.0088 94.1127 76.04 94.1602C76.0713 94.2077 76.0987 94.259 76.12 94.3115C76.1425 94.364 76.1587 94.419 76.17 94.4752C76.1812 94.5315 76.1875 94.589 76.1875 94.6465C76.1875 94.8765 76.0938 95.1015 75.9313 95.2652C75.8913 95.3052 75.8463 95.3415 75.7988 95.374C75.7513 95.4052 75.7 95.4315 75.6475 95.454C75.5937 95.4752 75.5387 95.4927 75.4837 95.504C75.4275 95.5152 75.37 95.5215 75.3125 95.5215Z" fill="#E9E9E9"/>
<path d="M99.7775 95.5222H78.2425C77.7588 95.5222 77.3675 95.1309 77.3675 94.6472C77.3675 94.1634 77.7588 93.7722 78.2425 93.7722H99.7788C101.865 93.7722 103.564 92.0747 103.564 89.9872V89.4647C103.564 87.3784 101.866 85.6797 99.7788 85.6797H65.6287C63.5425 85.6797 61.8438 87.3772 61.8438 89.4647V89.9872C61.8438 92.0734 63.5412 93.7722 65.6287 93.7722H72.7687C73.2525 93.7722 73.6437 94.1634 73.6437 94.6472C73.6437 95.1309 73.2525 95.5222 72.7687 95.5222H65.6287C62.5775 95.5222 60.0938 93.0397 60.0938 89.9872V89.4647C60.0938 86.4134 62.5762 83.9297 65.6287 83.9297H99.7775C102.829 83.9297 105.312 86.4122 105.312 89.4647V89.9872C105.312 93.0384 102.83 95.5222 99.7775 95.5222Z" fill="#E9E9E9"/>
<path d="M99.9932 81.3508H63.6045C63.1207 81.3508 62.7295 80.9595 62.7295 80.4758V77.4858C62.7295 77.2508 62.8232 77.0258 62.9907 76.862L66.5195 73.3958C66.6832 73.2345 66.9032 73.1445 67.1332 73.1445H99.9932C100.477 73.1445 100.868 73.5358 100.868 74.0195V80.4758C100.868 80.9595 100.477 81.3508 99.9932 81.3508ZM64.4795 79.6008H99.1182V74.8945H67.4907L64.4795 77.8533V79.6008Z" fill="#E9E9E9"/>
<path d="M63.6043 78.36C63.3781 78.36 63.1518 78.2725 62.9806 78.0988C62.6418 77.7538 62.6468 77.2 62.9918 76.8613L65.8831 74.0213L53.0581 61.4925C52.8118 61.915 52.4981 62.2975 52.1293 62.6213L60.9843 73.0488C61.2968 73.4175 61.2518 73.9688 60.8843 74.2825C60.5156 74.595 59.9631 74.55 59.6506 74.1825L50.1706 63.02C49.9981 62.8163 49.9281 62.5463 49.9793 62.2838C50.0306 62.0225 50.1993 61.7988 50.4356 61.6763C51.1718 61.295 51.7056 60.585 51.8618 59.775C51.9231 59.4588 52.1531 59.2025 52.4606 59.1063C52.7681 59.01 53.1031 59.0913 53.3331 59.315L67.7443 73.3938C67.9131 73.5575 68.0081 73.7838 68.0081 74.0188C68.0081 74.2538 67.9143 74.4788 67.7468 74.6438L64.2181 78.11C64.0468 78.2763 63.8256 78.36 63.6043 78.36Z" fill="#E9E9E9"/>
<path d="M50.8636 78.5343H48.1048C47.6336 78.5343 47.2461 78.1606 47.2298 77.6893L46.7036 62.5156C46.6936 62.2081 46.8448 61.9168 47.1036 61.7493C47.3623 61.5818 47.6898 61.5643 47.9661 61.7006C48.3423 61.8868 48.7486 61.9818 49.1748 61.9818C49.6011 61.9818 50.0086 61.8868 50.3848 61.7006C50.6548 61.5668 50.9761 61.5806 51.2323 61.7393C51.4898 61.8981 51.6461 62.1768 51.6486 62.4793L51.7386 77.6531C51.7398 77.8856 51.6486 78.1093 51.4836 78.2756C51.3198 78.4418 51.0961 78.5343 50.8636 78.5343ZM48.9498 76.7843H49.9836L49.9061 63.6743C49.4448 63.7493 48.9586 63.7518 48.4948 63.6818L48.9498 76.7843Z" fill="#E9E9E9"/>
<path d="M55.5829 87.1177H48.8629C48.5966 87.1177 48.3454 86.9964 48.1791 86.7889L47.0291 85.3502C46.9054 85.1952 46.8379 85.0027 46.8379 84.8039V77.6602C46.8379 77.1764 47.2291 76.7852 47.7129 76.7852H51.9429C52.4266 76.7852 52.8179 77.1764 52.8179 77.6602V82.2902H54.1429L56.6041 79.8277C56.8541 79.5777 57.2304 79.5027 57.5579 79.6377C57.8854 79.7727 58.0979 80.0927 58.0979 80.4464V84.6477C58.0979 84.8839 58.0029 85.1102 57.8329 85.2752L56.1929 86.8714C56.0304 87.0289 55.8116 87.1177 55.5829 87.1177ZM49.2841 85.3677H55.2279L56.3479 84.2777V82.5589L55.1241 83.7839C54.9604 83.9477 54.7379 84.0402 54.5054 84.0402H51.9429C51.4591 84.0402 51.0679 83.6489 51.0679 83.1652V78.5352H48.5879V84.4977L49.2841 85.3677Z" fill="#E9E9E9"/>
<path d="M66.4862 92.5104C64.9499 92.5104 63.7012 91.2617 63.7012 89.7254C63.7012 88.1892 64.9499 86.9404 66.4862 86.9404C68.0212 86.9404 69.2712 88.1892 69.2712 89.7254C69.2712 91.2617 68.0212 92.5104 66.4862 92.5104ZM66.4862 88.6904C65.9149 88.6904 65.4512 89.1542 65.4512 89.7254C65.4512 90.2967 65.9149 90.7604 66.4862 90.7604C67.0562 90.7604 67.5212 90.2967 67.5212 89.7254C67.5212 89.1542 67.0574 88.6904 66.4862 88.6904Z" fill="#E9E9E9"/>
<path d="M74.5946 92.5104C73.0583 92.5104 71.8096 91.2617 71.8096 89.7254C71.8096 88.1892 73.0583 86.9404 74.5946 86.9404C76.1308 86.9404 77.3796 88.1892 77.3796 89.7254C77.3796 91.2617 76.1296 92.5104 74.5946 92.5104ZM74.5946 88.6904C74.0233 88.6904 73.5596 89.1542 73.5596 89.7254C73.5596 90.2967 74.0233 90.7604 74.5946 90.7604C75.1658 90.7604 75.6296 90.2967 75.6296 89.7254C75.6296 89.1542 75.1646 88.6904 74.5946 88.6904Z" fill="#E9E9E9"/>
<path d="M82.7039 92.5104C81.1677 92.5104 79.9189 91.2617 79.9189 89.7254C79.9189 88.1892 81.1677 86.9404 82.7039 86.9404C84.2389 86.9404 85.4889 88.1892 85.4889 89.7254C85.4889 91.2617 84.2389 92.5104 82.7039 92.5104ZM82.7039 88.6904C82.1327 88.6904 81.6689 89.1542 81.6689 89.7254C81.6689 90.2967 82.1327 90.7604 82.7039 90.7604C83.2739 90.7604 83.7389 90.2967 83.7389 89.7254C83.7389 89.1542 83.2739 88.6904 82.7039 88.6904Z" fill="#E9E9E9"/>
<path d="M90.8123 92.5104C89.2761 92.5104 88.0273 91.2617 88.0273 89.7254C88.0273 88.1892 89.2761 86.9404 90.8123 86.9404C92.3486 86.9404 93.5973 88.1892 93.5973 89.7254C93.5973 91.2617 92.3473 92.5104 90.8123 92.5104ZM90.8123 88.6904C90.2411 88.6904 89.7773 89.1542 89.7773 89.7254C89.7773 90.2967 90.2411 90.7604 90.8123 90.7604C91.3836 90.7604 91.8473 90.2967 91.8473 89.7254C91.8473 89.1542 91.3823 88.6904 90.8123 88.6904Z" fill="#E9E9E9"/>
<path d="M98.9207 92.5104C97.3845 92.5104 96.1357 91.2617 96.1357 89.7254C96.1357 88.1892 97.3845 86.9404 98.9207 86.9404C100.456 86.9404 101.706 88.1892 101.706 89.7254C101.706 91.2617 100.456 92.5104 98.9207 92.5104ZM98.9207 88.6904C98.3495 88.6904 97.8857 89.1542 97.8857 89.7254C97.8857 90.2967 98.3495 90.7604 98.9207 90.7604C99.4907 90.7604 99.9557 90.2967 99.9557 89.7254C99.9545 89.1542 99.4907 88.6904 98.9207 88.6904Z" fill="#E9E9E9"/>
<path d="M49.1753 56.5059C47.6653 56.5059 46.4378 57.7346 46.4378 59.2446C46.4378 60.2946 47.0228 61.2359 47.9653 61.7009C48.3428 61.8884 48.7503 61.9834 49.1753 61.9834C49.6015 61.9834 50.009 61.8884 50.3853 61.7021C50.3903 61.6996 50.3965 61.6971 50.4015 61.6946C50.4128 61.6884 50.424 61.6821 50.4353 61.6759C51.1715 61.2946 51.7053 60.5846 51.8615 59.7746C51.8978 59.6009 51.914 59.4259 51.914 59.2459C51.9153 57.7346 50.6865 56.5059 49.1753 56.5059ZM49.1753 63.7334C48.4778 63.7334 47.809 63.5771 47.189 63.2696C45.6465 62.5096 44.6865 60.9671 44.6865 59.2446C44.6865 56.7696 46.7003 54.7559 49.174 54.7559C51.649 54.7559 53.664 56.7696 53.664 59.2446C53.664 59.5421 53.6353 59.8359 53.5778 60.1159C53.3228 61.4284 52.4578 62.5896 51.2628 63.2171C51.2253 63.2384 51.1865 63.2584 51.1465 63.2771C50.5315 63.5796 49.869 63.7334 49.1753 63.7334Z" fill="#E9E9E9"/>
</svg>
